<?xml version="1.0" encoding="UTF-8" standalone="no"?>
<!DOCTYPE svg PUBLIC "-//W3C//DTD SVG 1.1//EN"
 "http://www.w3.org/Graphics/SVG/1.1/DTD/svg11.dtd">
<!-- Generated by graphviz version 2.40.1 (20161225.0304)
 -->
<!-- Title: dependencies Pages: 1 -->
<svg width="6926pt" height="211pt"
 viewBox="0.00 0.00 6926.00 211.00" xmlns="http://www.w3.org/2000/svg" xmlns:xlink="http://www.w3.org/1999/xlink">
<g id="graph0" class="graph" transform="scale(1 1) rotate(0) translate(4 207)">
<title>dependencies</title>
<polygon fill="#ffffff" stroke="transparent" points="-4,4 -4,-207 6922,-207 6922,4 -4,4"/>
<text text-anchor="start" x="3438.0091" y="-42.4" font-family="sans-serif" font-weight="bold" font-size="14.00" fill="#000000">Legend</text>
<polygon fill="#ffffb3" stroke="transparent" points="3225,-10 3225,-30 3245,-30 3245,-10 3225,-10"/>
<text text-anchor="start" x="3248.629" y="-15.4" font-family="sans-serif" font-size="14.00" fill="#000000"> &#160;Declarations</text>
<polygon fill="#8dd3c7" stroke="transparent" points="3338,-10 3338,-30 3358,-30 3358,-10 3338,-10"/>
<text text-anchor="start" x="3361.7251" y="-15.4" font-family="sans-serif" font-size="14.00" fill="#000000"> &#160;Module</text>
<polygon fill="#80b1d3" stroke="transparent" points="3424,-10 3424,-30 3444,-30 3444,-10 3424,-10"/>
<text text-anchor="start" x="3447.7812" y="-15.4" font-family="sans-serif" font-size="14.00" fill="#000000"> &#160;Bootstrap</text>
<polygon fill="#fdb462" stroke="transparent" points="3521,-10 3521,-30 3541,-30 3541,-10 3521,-10"/>
<text text-anchor="start" x="3544.6732" y="-15.4" font-family="sans-serif" font-size="14.00" fill="#000000"> &#160;Providers</text>
<polygon fill="#fb8072" stroke="transparent" points="3617,-10 3617,-30 3637,-30 3637,-10 3617,-10"/>
<text text-anchor="start" x="3640.7258" y="-15.4" font-family="sans-serif" font-size="14.00" fill="#000000"> &#160;Exports</text>
<g id="clust1" class="cluster">
<title>cluster_BamModule</title>
<polygon fill="none" stroke="#000000" stroke-dasharray="1,5" points="8,-70 8,-195 6910,-195 6910,-70 8,-70"/>
</g>
<g id="clust2" class="cluster">
<title>cluster_BamModule_declarations</title>
<polygon fill="none" stroke="#000000" points="2329,-78 2329,-130 6902,-130 6902,-78 2329,-78"/>
</g>
<g id="clust29" class="cluster">
<title>cluster_BamModule_imports</title>
<polygon fill="none" stroke="#000000" points="2173,-78 2173,-130 2321,-130 2321,-78 2173,-78"/>
</g>
<g id="clust32" class="cluster">
<title>cluster_BamModule_providers</title>
<polygon fill="none" stroke="#000000" points="16,-78 16,-130 2165,-130 2165,-78 16,-78"/>
</g>
<!-- BamComponent -->
<g id="node1" class="node">
<title>BamComponent</title>
<polygon fill="#ffffb3" stroke="#000000" points="6893.7744,-122 6786.2256,-122 6786.2256,-86 6893.7744,-86 6893.7744,-122"/>
<text text-anchor="middle" x="6840" y="-99.8" font-family="Times,serif" font-size="14.00" fill="#000000">BamComponent</text>
</g>
<!-- BamModule -->
<g id="node27" class="node">
<title>BamModule</title>
<polygon fill="#8dd3c7" stroke="#000000" points="3595.9916,-187 3592.9916,-191 3571.9916,-191 3568.9916,-187 3510.0084,-187 3510.0084,-151 3595.9916,-151 3595.9916,-187"/>
<text text-anchor="middle" x="3553" y="-164.8" font-family="Times,serif" font-size="14.00" fill="#000000">BamModule</text>
</g>
<!-- BamComponent&#45;&gt;BamModule -->
<g id="edge1" class="edge">
<title>BamComponent&#45;&gt;BamModule</title>
<path fill="none" stroke="#000000" d="M6840,-122.1985C6840,-146.3563 6840,-186 6840,-186 6840,-186 3606.0651,-186 3606.0651,-186"/>
<polygon fill="#000000" stroke="#000000" points="3606.0651,-182.5001 3596.0651,-186 3606.0651,-189.5001 3606.0651,-182.5001"/>
</g>
<!-- HomeComponent -->
<g id="node2" class="node">
<title>HomeComponent</title>
<polygon fill="#ffffb3" stroke="#000000" points="6767.5451,-122 6652.4549,-122 6652.4549,-86 6767.5451,-86 6767.5451,-122"/>
<text text-anchor="middle" x="6710" y="-99.8" font-family="Times,serif" font-size="14.00" fill="#000000">HomeComponent</text>
</g>
<!-- HomeComponent&#45;&gt;BamModule -->
<g id="edge2" class="edge">
<title>HomeComponent&#45;&gt;BamModule</title>
<path fill="none" stroke="#000000" d="M6710,-122.1532C6710,-145.7566 6710,-184 6710,-184 6710,-184 3606.129,-184 3606.129,-184"/>
<polygon fill="#000000" stroke="#000000" points="3606.129,-180.5001 3596.129,-184 3606.129,-187.5001 3606.129,-180.5001"/>
</g>
<!-- CurriculumWeekComponent -->
<g id="node3" class="node">
<title>CurriculumWeekComponent</title>
<polygon fill="#ffffb3" stroke="#000000" points="6634.021,-122 6455.979,-122 6455.979,-86 6634.021,-86 6634.021,-122"/>
<text text-anchor="middle" x="6545" y="-99.8" font-family="Times,serif" font-size="14.00" fill="#000000">CurriculumWeekComponent</text>
</g>
<!-- CurriculumWeekComponent&#45;&gt;BamModule -->
<g id="edge3" class="edge">
<title>CurriculumWeekComponent&#45;&gt;BamModule</title>
<path fill="none" stroke="#000000" d="M6545,-122.3228C6545,-145.6602 6545,-183 6545,-183 6545,-183 3606.1595,-183 3606.1595,-183"/>
<polygon fill="#000000" stroke="#000000" points="3606.1595,-179.5001 3596.1595,-183 3606.1594,-186.5001 3606.1595,-179.5001"/>
</g>
<!-- MainCurriculumViewComponent -->
<g id="node4" class="node">
<title>MainCurriculumViewComponent</title>
<polygon fill="#ffffb3" stroke="#000000" points="6437.745,-122 6232.255,-122 6232.255,-86 6437.745,-86 6437.745,-122"/>
<text text-anchor="middle" x="6335" y="-99.8" font-family="Times,serif" font-size="14.00" fill="#000000">MainCurriculumViewComponent</text>
</g>
<!-- MainCurriculumViewComponent&#45;&gt;BamModule -->
<g id="edge4" class="edge">
<title>MainCurriculumViewComponent&#45;&gt;BamModule</title>
<path fill="none" stroke="#000000" d="M6335,-122.0908C6335,-145.1328 6335,-182 6335,-182 6335,-182 3606.1403,-182 3606.1403,-182"/>
<polygon fill="#000000" stroke="#000000" points="3606.1403,-178.5001 3596.1403,-182 3606.1402,-185.5001 3606.1403,-178.5001"/>
</g>
<!-- TopicPoolComponent -->
<g id="node5" class="node">
<title>TopicPoolComponent</title>
<polygon fill="#ffffb3" stroke="#000000" points="6213.6638,-122 6074.3362,-122 6074.3362,-86 6213.6638,-86 6213.6638,-122"/>
<text text-anchor="middle" x="6144" y="-99.8" font-family="Times,serif" font-size="14.00" fill="#000000">TopicPoolComponent</text>
</g>
<!-- TopicPoolComponent&#45;&gt;BamModule -->
<g id="edge5" class="edge">
<title>TopicPoolComponent&#45;&gt;BamModule</title>
<path fill="none" stroke="#000000" d="M6144,-122.0109C6144,-144.4852 6144,-180 6144,-180 6144,-180 3606.0774,-180 3606.0774,-180"/>
<polygon fill="#000000" stroke="#000000" points="3606.0774,-176.5001 3596.0774,-180 3606.0773,-183.5001 3606.0774,-176.5001"/>
</g>
<!-- CourseStructureComponent -->
<g id="node6" class="node">
<title>CourseStructureComponent</title>
<polygon fill="#ffffb3" stroke="#000000" points="6056.3033,-122 5883.6967,-122 5883.6967,-86 6056.3033,-86 6056.3033,-122"/>
<text text-anchor="middle" x="5970" y="-99.8" font-family="Times,serif" font-size="14.00" fill="#000000">CourseStructureComponent</text>
</g>
<!-- CourseStructureComponent&#45;&gt;BamModule -->
<g id="edge6" class="edge">
<title>CourseStructureComponent&#45;&gt;BamModule</title>
<path fill="none" stroke="#000000" d="M5970,-122.2921C5970,-144.2057 5970,-178 5970,-178 5970,-178 3606.2356,-178 3606.2356,-178"/>
<polygon fill="#000000" stroke="#000000" points="3606.2357,-174.5001 3596.2356,-178 3606.2356,-181.5001 3606.2357,-174.5001"/>
</g>
<!-- MyBatchesComponent -->
<g id="node7" class="node">
<title>MyBatchesComponent</title>
<polygon fill="#ffffb3" stroke="#000000" points="5865.5926,-122 5720.4074,-122 5720.4074,-86 5865.5926,-86 5865.5926,-122"/>
<text text-anchor="middle" x="5793" y="-99.8" font-family="Times,serif" font-size="14.00" fill="#000000">MyBatchesComponent</text>
</g>
<!-- MyBatchesComponent&#45;&gt;BamModule -->
<g id="edge7" class="edge">
<title>MyBatchesComponent&#45;&gt;BamModule</title>
<path fill="none" stroke="#000000" d="M5793,-122.0449C5793,-143.6623 5793,-177 5793,-177 5793,-177 3606.2423,-177 3606.2423,-177"/>
<polygon fill="#000000" stroke="#000000" points="3606.2423,-173.5001 3596.2423,-177 3606.2422,-180.5001 3606.2423,-173.5001"/>
</g>
<!-- AllBatchesComponent -->
<g id="node8" class="node">
<title>AllBatchesComponent</title>
<polygon fill="#ffffb3" stroke="#000000" points="5702.5365,-122 5559.4635,-122 5559.4635,-86 5702.5365,-86 5702.5365,-122"/>
<text text-anchor="middle" x="5631" y="-99.8" font-family="Times,serif" font-size="14.00" fill="#000000">AllBatchesComponent</text>
</g>
<!-- AllBatchesComponent&#45;&gt;BamModule -->
<g id="edge8" class="edge">
<title>AllBatchesComponent&#45;&gt;BamModule</title>
<path fill="none" stroke="#000000" d="M5631,-122.2843C5631,-143.3211 5631,-175 5631,-175 5631,-175 3606.402,-175 3606.402,-175"/>
<polygon fill="#000000" stroke="#000000" points="3606.402,-171.5001 3596.402,-175 3606.4019,-178.5001 3606.402,-171.5001"/>
</g>
<!-- BatchesTableComponent -->
<g id="node9" class="node">
<title>BatchesTableComponent</title>
<polygon fill="#ffffb3" stroke="#000000" points="5540.5211,-122 5383.4789,-122 5383.4789,-86 5540.5211,-86 5540.5211,-122"/>
<text text-anchor="middle" x="5462" y="-99.8" font-family="Times,serif" font-size="14.00" fill="#000000">BatchesTableComponent</text>
</g>
<!-- BatchesTableComponent&#45;&gt;BamModule -->
<g id="edge9" class="edge">
<title>BatchesTableComponent&#45;&gt;BamModule</title>
<path fill="none" stroke="#000000" d="M5462,-122.0267C5462,-142.7672 5462,-174 5462,-174 5462,-174 3606.0027,-174 3606.0027,-174"/>
<polygon fill="#000000" stroke="#000000" points="3606.0027,-170.5001 3596.0027,-174 3606.0027,-177.5001 3606.0027,-170.5001"/>
</g>
<!-- BatchesSearchComponent -->
<g id="node10" class="node">
<title>BatchesSearchComponent</title>
<polygon fill="#ffffb3" stroke="#000000" points="5364.7352,-122 5201.2648,-122 5201.2648,-86 5364.7352,-86 5364.7352,-122"/>
<text text-anchor="middle" x="5283" y="-99.8" font-family="Times,serif" font-size="14.00" fill="#000000">BatchesSearchComponent</text>
</g>
<!-- BatchesSearchComponent&#45;&gt;BamModule -->
<g id="edge10" class="edge">
<title>BatchesSearchComponent&#45;&gt;BamModule</title>
<path fill="none" stroke="#000000" d="M5283,-122.2228C5283,-142.3652 5283,-172 5283,-172 5283,-172 3606.1959,-172 3606.1959,-172"/>
<polygon fill="#000000" stroke="#000000" points="3606.1959,-168.5001 3596.1959,-172 3606.1959,-175.5001 3606.1959,-168.5001"/>
</g>
<!-- EditBatchComponent -->
<g id="node11" class="node">
<title>EditBatchComponent</title>
<polygon fill="#ffffb3" stroke="#000000" points="5182.823,-122 5045.177,-122 5045.177,-86 5182.823,-86 5182.823,-122"/>
<text text-anchor="middle" x="5114" y="-99.8" font-family="Times,serif" font-size="14.00" fill="#000000">EditBatchComponent</text>
</g>
<!-- EditBatchComponent&#45;&gt;BamModule -->
<g id="edge11" class="edge">
<title>EditBatchComponent&#45;&gt;BamModule</title>
<path fill="none" stroke="#000000" d="M5091.1129,-122.1061C5091.1129,-141.3391 5091.1129,-169 5091.1129,-169 5091.1129,-169 3606.1483,-169 3606.1483,-169"/>
<polygon fill="#000000" stroke="#000000" points="3606.1483,-165.5001 3596.1483,-169 3606.1483,-172.5001 3606.1483,-165.5001"/>
</g>
<!-- EditBatchComponent&#45;&gt;BamModule -->
<g id="edge17" class="edge">
<title>EditBatchComponent&#45;&gt;BamModule</title>
<path fill="none" stroke="#000000" d="M5136.8871,-122.308C5136.8871,-142.1455 5136.8871,-171 5136.8871,-171 5136.8871,-171 3606.1866,-171 3606.1866,-171"/>
<polygon fill="#000000" stroke="#000000" points="3606.1866,-167.5001 3596.1866,-171 3606.1866,-174.5001 3606.1866,-167.5001"/>
</g>
<!-- WelcomeComponent -->
<g id="node12" class="node">
<title>WelcomeComponent</title>
<polygon fill="#ffffb3" stroke="#000000" points="5027.472,-122 4892.528,-122 4892.528,-86 5027.472,-86 5027.472,-122"/>
<text text-anchor="middle" x="4960" y="-99.8" font-family="Times,serif" font-size="14.00" fill="#000000">WelcomeComponent</text>
</g>
<!-- WelcomeComponent&#45;&gt;BamModule -->
<g id="edge12" class="edge">
<title>WelcomeComponent&#45;&gt;BamModule</title>
<path fill="none" stroke="#000000" d="M4960,-122.1686C4960,-141.0898 4960,-168 4960,-168 4960,-168 3606.2635,-168 3606.2635,-168"/>
<polygon fill="#000000" stroke="#000000" points="3606.2635,-164.5001 3596.2635,-168 3606.2634,-171.5001 3606.2635,-164.5001"/>
</g>
<!-- DashboardInfoComponent -->
<g id="node13" class="node">
<title>DashboardInfoComponent</title>
<polygon fill="#ffffb3" stroke="#000000" points="4874.7949,-122 4709.2051,-122 4709.2051,-86 4874.7949,-86 4874.7949,-122"/>
<text text-anchor="middle" x="4792" y="-99.8" font-family="Times,serif" font-size="14.00" fill="#000000">DashboardInfoComponent</text>
</g>
<!-- DashboardInfoComponent&#45;&gt;BamModule -->
<g id="edge13" class="edge">
<title>DashboardInfoComponent&#45;&gt;BamModule</title>
<path fill="none" stroke="#000000" d="M4764.4509,-122.302C4764.4509,-140.2699 4764.4509,-165 4764.4509,-165 4764.4509,-165 3606.1162,-165 3606.1162,-165"/>
<polygon fill="#000000" stroke="#000000" points="3606.1162,-161.5001 3596.1162,-165 3606.1161,-168.5001 3606.1162,-161.5001"/>
</g>
<!-- DashboardInfoComponent&#45;&gt;BamModule -->
<g id="edge22" class="edge">
<title>DashboardInfoComponent&#45;&gt;BamModule</title>
<path fill="none" stroke="#000000" d="M4819.5491,-122.2222C4819.5491,-140.8285 4819.5491,-167 4819.5491,-167 4819.5491,-167 3606.2311,-167 3606.2311,-167"/>
<polygon fill="#000000" stroke="#000000" points="3606.2311,-163.5001 3596.2311,-167 3606.2311,-170.5001 3606.2311,-163.5001"/>
</g>
<!-- BatchProgressBarComponent -->
<g id="node14" class="node">
<title>BatchProgressBarComponent</title>
<polygon fill="#ffffb3" stroke="#000000" points="4691.4087,-122 4508.5913,-122 4508.5913,-86 4691.4087,-86 4691.4087,-122"/>
<text text-anchor="middle" x="4600" y="-99.8" font-family="Times,serif" font-size="14.00" fill="#000000">BatchProgressBarComponent</text>
</g>
<!-- BatchProgressBarComponent&#45;&gt;BamModule -->
<g id="edge14" class="edge">
<title>BatchProgressBarComponent&#45;&gt;BamModule</title>
<path fill="none" stroke="#000000" d="M4630.4014,-122.0225C4630.4014,-139.3734 4630.4014,-163 4630.4014,-163 4630.4014,-163 3606.2345,-163 3606.2345,-163"/>
<polygon fill="#000000" stroke="#000000" points="3606.2345,-159.5001 3596.2345,-163 3606.2344,-166.5001 3606.2345,-159.5001"/>
</g>
<!-- BatchProgressBarComponent&#45;&gt;BamModule -->
<g id="edge19" class="edge">
<title>BatchProgressBarComponent&#45;&gt;BamModule</title>
<path fill="none" stroke="#000000" d="M4569.5986,-122.0336C4569.5986,-139.0597 4569.5986,-162 4569.5986,-162 4569.5986,-162 3606.0326,-162 3606.0326,-162"/>
<polygon fill="#000000" stroke="#000000" points="3606.0327,-158.5001 3596.0326,-162 3606.0326,-165.5001 3606.0327,-158.5001"/>
</g>
<!-- LoadingSpinnerComponent -->
<g id="node15" class="node">
<title>LoadingSpinnerComponent</title>
<polygon fill="#ffffb3" stroke="#000000" points="4490.5392,-122 4319.4608,-122 4319.4608,-86 4490.5392,-86 4490.5392,-122"/>
<text text-anchor="middle" x="4405" y="-99.8" font-family="Times,serif" font-size="14.00" fill="#000000">LoadingSpinnerComponent</text>
</g>
<!-- LoadingSpinnerComponent&#45;&gt;BamModule -->
<g id="edge15" class="edge">
<title>LoadingSpinnerComponent&#45;&gt;BamModule</title>
<path fill="none" stroke="#000000" d="M4376.4102,-122.0091C4376.4102,-138.0494 4376.4102,-159 4376.4102,-159 4376.4102,-159 3606.1108,-159 3606.1108,-159"/>
<polygon fill="#000000" stroke="#000000" points="3606.1108,-155.5001 3596.1108,-159 3606.1107,-162.5001 3606.1108,-155.5001"/>
</g>
<!-- LoadingSpinnerComponent&#45;&gt;BamModule -->
<g id="edge21" class="edge">
<title>LoadingSpinnerComponent&#45;&gt;BamModule</title>
<path fill="none" stroke="#000000" d="M4433.5898,-122.027C4433.5898,-138.3976 4433.5898,-160 4433.5898,-160 4433.5898,-160 3606.0688,-160 3606.0688,-160"/>
<polygon fill="#000000" stroke="#000000" points="3606.0688,-156.5001 3596.0688,-160 3606.0687,-163.5001 3606.0688,-156.5001"/>
</g>
<!-- AddAssociateToBatchComponent -->
<g id="node16" class="node">
<title>AddAssociateToBatchComponent</title>
<polygon fill="#ffffb3" stroke="#000000" points="4301.0688,-122 4092.9312,-122 4092.9312,-86 4301.0688,-86 4301.0688,-122"/>
<text text-anchor="middle" x="4197" y="-99.8" font-family="Times,serif" font-size="14.00" fill="#000000">AddAssociateToBatchComponent</text>
</g>
<!-- AddAssociateToBatchComponent&#45;&gt;BamModule -->
<g id="edge16" class="edge">
<title>AddAssociateToBatchComponent&#45;&gt;BamModule</title>
<path fill="none" stroke="#000000" d="M4197,-122.2396C4197,-137.5706 4197,-157 4197,-157 4197,-157 3606.0037,-157 3606.0037,-157"/>
<polygon fill="#000000" stroke="#000000" points="3606.0037,-153.5001 3596.0037,-157 3606.0037,-160.5001 3606.0037,-153.5001"/>
</g>
<!-- RemoveAssociateFromBatchComponent -->
<g id="node17" class="node">
<title>RemoveAssociateFromBatchComponent</title>
<polygon fill="#ffffb3" stroke="#000000" points="4074.9001,-122 3829.0999,-122 3829.0999,-86 4074.9001,-86 4074.9001,-122"/>
<text text-anchor="middle" x="3952" y="-99.8" font-family="Times,serif" font-size="14.00" fill="#000000">RemoveAssociateFromBatchComponent</text>
</g>
<!-- RemoveAssociateFromBatchComponent&#45;&gt;BamModule -->
<g id="edge18" class="edge">
<title>RemoveAssociateFromBatchComponent&#45;&gt;BamModule</title>
<path fill="none" stroke="#000000" d="M3952,-122.1871C3952,-137.1824 3952,-156 3952,-156 3952,-156 3606.0791,-156 3606.0791,-156"/>
<polygon fill="#000000" stroke="#000000" points="3606.0791,-152.5001 3596.0791,-156 3606.0791,-159.5001 3606.0791,-152.5001"/>
</g>
<!-- AddSubtopicComponent -->
<g id="node18" class="node">
<title>AddSubtopicComponent</title>
<polygon fill="#ffffb3" stroke="#000000" points="3811.7176,-122 3656.2824,-122 3656.2824,-86 3811.7176,-86 3811.7176,-122"/>
<text text-anchor="middle" x="3734" y="-99.8" font-family="Times,serif" font-size="14.00" fill="#000000">AddSubtopicComponent</text>
</g>
<!-- AddSubtopicComponent&#45;&gt;BamModule -->
<g id="edge20" class="edge">
<title>AddSubtopicComponent&#45;&gt;BamModule</title>
<path fill="none" stroke="#000000" d="M3759.8696,-122.0511C3759.8696,-136.373 3759.8696,-154 3759.8696,-154 3759.8696,-154 3606.1148,-154 3606.1148,-154"/>
<polygon fill="#000000" stroke="#000000" points="3606.1149,-150.5001 3596.1148,-154 3606.1148,-157.5001 3606.1149,-150.5001"/>
</g>
<!-- AddSubtopicComponent&#45;&gt;BamModule -->
<g id="edge27" class="edge">
<title>AddSubtopicComponent&#45;&gt;BamModule</title>
<path fill="none" stroke="#000000" d="M3708.1304,-122.2458C3708.1304,-136.1772 3708.1304,-153 3708.1304,-153 3708.1304,-153 3606.2125,-153 3606.2125,-153"/>
<polygon fill="#000000" stroke="#000000" points="3606.2125,-149.5001 3596.2125,-153 3606.2124,-156.5001 3606.2125,-149.5001"/>
</g>
<!-- ViewAssociatesComponent -->
<g id="node19" class="node">
<title>ViewAssociatesComponent</title>
<polygon fill="#ffffb3" stroke="#000000" points="3638.5169,-122 3467.4831,-122 3467.4831,-86 3638.5169,-86 3638.5169,-122"/>
<text text-anchor="middle" x="3553" y="-99.8" font-family="Times,serif" font-size="14.00" fill="#000000">ViewAssociatesComponent</text>
</g>
<!-- ViewAssociatesComponent&#45;&gt;BamModule -->
<g id="edge23" class="edge">
<title>ViewAssociatesComponent&#45;&gt;BamModule</title>
<path fill="none" stroke="#000000" d="M3538.6681,-122.1061C3538.6681,-122.1061 3538.6681,-140.991 3538.6681,-140.991"/>
<polygon fill="#000000" stroke="#000000" points="3535.1682,-140.9909 3538.6681,-150.991 3542.1682,-140.991 3535.1682,-140.9909"/>
</g>
<!-- ViewAssociatesComponent&#45;&gt;BamModule -->
<g id="edge25" class="edge">
<title>ViewAssociatesComponent&#45;&gt;BamModule</title>
<path fill="none" stroke="#000000" d="M3567.3319,-122.1061C3567.3319,-122.1061 3567.3319,-140.991 3567.3319,-140.991"/>
<polygon fill="#000000" stroke="#000000" points="3563.832,-140.9909 3567.3319,-150.991 3570.832,-140.991 3563.832,-140.9909"/>
</g>
<!-- CalendarComponent -->
<g id="node20" class="node">
<title>CalendarComponent</title>
<polygon fill="#ffffb3" stroke="#000000" points="3448.8641,-122 3317.1359,-122 3317.1359,-86 3448.8641,-86 3448.8641,-122"/>
<text text-anchor="middle" x="3383" y="-99.8" font-family="Times,serif" font-size="14.00" fill="#000000">CalendarComponent</text>
</g>
<!-- CalendarComponent&#45;&gt;BamModule -->
<g id="edge24" class="edge">
<title>CalendarComponent&#45;&gt;BamModule</title>
<path fill="none" stroke="#000000" d="M3361.0227,-122.1243C3361.0227,-136.7832 3361.0227,-155 3361.0227,-155 3361.0227,-155 3499.9165,-155 3499.9165,-155"/>
<polygon fill="#000000" stroke="#000000" points="3499.9166,-158.5001 3509.9165,-155 3499.9165,-151.5001 3499.9166,-158.5001"/>
</g>
<!-- CalendarComponent&#45;&gt;BamModule -->
<g id="edge26" class="edge">
<title>CalendarComponent&#45;&gt;BamModule</title>
<path fill="none" stroke="#000000" d="M3404.9773,-122.2458C3404.9773,-136.1772 3404.9773,-153 3404.9773,-153 3404.9773,-153 3499.7878,-153 3499.7878,-153"/>
<polygon fill="#000000" stroke="#000000" points="3499.7878,-156.5001 3509.7878,-153 3499.7878,-149.5001 3499.7878,-156.5001"/>
</g>
<!-- TopicSearchComponent -->
<g id="node21" class="node">
<title>TopicSearchComponent</title>
<polygon fill="#ffffb3" stroke="#000000" points="3299.0772,-122 3146.9228,-122 3146.9228,-86 3299.0772,-86 3299.0772,-122"/>
<text text-anchor="middle" x="3223" y="-99.8" font-family="Times,serif" font-size="14.00" fill="#000000">TopicSearchComponent</text>
</g>
<!-- TopicSearchComponent&#45;&gt;BamModule -->
<g id="edge28" class="edge">
<title>TopicSearchComponent&#45;&gt;BamModule</title>
<path fill="none" stroke="#000000" d="M3223,-122.1871C3223,-137.1824 3223,-156 3223,-156 3223,-156 3499.8583,-156 3499.8583,-156"/>
<polygon fill="#000000" stroke="#000000" points="3499.8583,-159.5001 3509.8583,-156 3499.8582,-152.5001 3499.8583,-159.5001"/>
</g>
<!-- SubtopicSearchComponent -->
<g id="node22" class="node">
<title>SubtopicSearchComponent</title>
<polygon fill="#ffffb3" stroke="#000000" points="3128.6979,-122 2959.3021,-122 2959.3021,-86 3128.6979,-86 3128.6979,-122"/>
<text text-anchor="middle" x="3044" y="-99.8" font-family="Times,serif" font-size="14.00" fill="#000000">SubtopicSearchComponent</text>
</g>
<!-- SubtopicSearchComponent&#45;&gt;BamModule -->
<g id="edge29" class="edge">
<title>SubtopicSearchComponent&#45;&gt;BamModule</title>
<path fill="none" stroke="#000000" d="M3044,-122.2819C3044,-137.9478 3044,-158 3044,-158 3044,-158 3499.6029,-158 3499.6029,-158"/>
<polygon fill="#000000" stroke="#000000" points="3499.603,-161.5001 3509.6029,-158 3499.6029,-154.5001 3499.603,-161.5001"/>
</g>
<!-- FilterBatchPipe -->
<g id="node23" class="node">
<title>FilterBatchPipe</title>
<polygon fill="#ffffb3" stroke="#000000" points="2940.8739,-122 2837.1261,-122 2837.1261,-86 2940.8739,-86 2940.8739,-122"/>
<text text-anchor="middle" x="2889" y="-99.8" font-family="Times,serif" font-size="14.00" fill="#000000">FilterBatchPipe</text>
</g>
<!-- FilterBatchPipe&#45;&gt;BamModule -->
<g id="edge30" class="edge">
<title>FilterBatchPipe&#45;&gt;BamModule</title>
<path fill="none" stroke="#000000" d="M2889,-122.0091C2889,-138.0494 2889,-159 2889,-159 2889,-159 3499.9447,-159 3499.9447,-159"/>
<polygon fill="#000000" stroke="#000000" points="3499.9448,-162.5001 3509.9447,-159 3499.9447,-155.5001 3499.9448,-162.5001"/>
</g>
<!-- AlertsComponent -->
<g id="node24" class="node">
<title>AlertsComponent</title>
<polygon fill="#ffffb3" stroke="#000000" points="2818.5409,-122 2703.4591,-122 2703.4591,-86 2818.5409,-86 2818.5409,-122"/>
<text text-anchor="middle" x="2761" y="-99.8" font-family="Times,serif" font-size="14.00" fill="#000000">AlertsComponent</text>
</g>
<!-- AlertsComponent&#45;&gt;BamModule -->
<g id="edge31" class="edge">
<title>AlertsComponent&#45;&gt;BamModule</title>
<path fill="none" stroke="#000000" d="M2761,-122.0352C2761,-138.7344 2761,-161 2761,-161 2761,-161 3499.8562,-161 3499.8562,-161"/>
<polygon fill="#000000" stroke="#000000" points="3499.8562,-164.5001 3509.8562,-161 3499.8562,-157.5001 3499.8562,-164.5001"/>
</g>
<!-- BoomComponent -->
<g id="node25" class="node">
<title>BoomComponent</title>
<polygon fill="#ffffb3" stroke="#000000" points="2684.5604,-122 2569.4396,-122 2569.4396,-86 2684.5604,-86 2684.5604,-122"/>
<text text-anchor="middle" x="2627" y="-99.8" font-family="Times,serif" font-size="14.00" fill="#000000">BoomComponent</text>
</g>
<!-- BoomComponent&#45;&gt;BamModule -->
<g id="edge32" class="edge">
<title>BoomComponent&#45;&gt;BamModule</title>
<path fill="none" stroke="#000000" d="M2627,-122.0336C2627,-139.0597 2627,-162 2627,-162 2627,-162 3499.8872,-162 3499.8872,-162"/>
<polygon fill="#000000" stroke="#000000" points="3499.8872,-165.5001 3509.8872,-162 3499.8871,-158.5001 3499.8872,-165.5001"/>
</g>
<!-- ExistingSubtopicModalComponent -->
<g id="node26" class="node">
<title>ExistingSubtopicModalComponent</title>
<polygon fill="#ffffb3" stroke="#000000" points="2551.3299,-122 2336.6701,-122 2336.6701,-86 2551.3299,-86 2551.3299,-122"/>
<text text-anchor="middle" x="2444" y="-99.8" font-family="Times,serif" font-size="14.00" fill="#000000">ExistingSubtopicModalComponent</text>
</g>
<!-- ExistingSubtopicModalComponent&#45;&gt;BamModule -->
<g id="edge33" class="edge">
<title>ExistingSubtopicModalComponent&#45;&gt;BamModule</title>
<path fill="none" stroke="#000000" d="M2444,-122.002C2444,-139.6754 2444,-164 2444,-164 2444,-164 3499.8663,-164 3499.8663,-164"/>
<polygon fill="#000000" stroke="#000000" points="3499.8663,-167.5001 3509.8663,-164 3499.8662,-160.5001 3499.8663,-167.5001"/>
</g>
<!-- BamRoutingModule -->
<g id="node28" class="node">
<title>BamRoutingModule</title>
<polygon fill="#8dd3c7" stroke="#000000" points="2312.6094,-122 2309.6094,-126 2288.6094,-126 2285.6094,-122 2181.3906,-122 2181.3906,-86 2312.6094,-86 2312.6094,-122"/>
<text text-anchor="middle" x="2247" y="-99.8" font-family="Times,serif" font-size="14.00" fill="#000000">BamRoutingModule</text>
</g>
<!-- BamRoutingModule&#45;&gt;BamModule -->
<g id="edge34" class="edge">
<title>BamRoutingModule&#45;&gt;BamModule</title>
<path fill="none" stroke="#000000" d="M2247,-122.2667C2247,-140.5552 2247,-166 2247,-166 2247,-166 3499.919,-166 3499.919,-166"/>
<polygon fill="#000000" stroke="#000000" points="3499.9191,-169.5001 3509.919,-166 3499.919,-162.5001 3499.9191,-169.5001"/>
</g>
<!-- DragndropService -->
<g id="node29" class="node">
<title>DragndropService</title>
<ellipse fill="#fdb462" stroke="#000000" cx="2075" cy="-104" rx="81.6442" ry="18"/>
<text text-anchor="middle" x="2075" y="-99.8" font-family="Times,serif" font-size="14.00" fill="#000000">DragndropService</text>
</g>
<!-- DragndropService&#45;&gt;BamModule -->
<g id="edge35" class="edge">
<title>DragndropService&#45;&gt;BamModule</title>
<path fill="none" stroke="#000000" d="M2075,-122.2222C2075,-140.8285 2075,-167 2075,-167 2075,-167 3499.9643,-167 3499.9643,-167"/>
<polygon fill="#000000" stroke="#000000" points="3499.9644,-170.5001 3509.9643,-167 3499.9643,-163.5001 3499.9644,-170.5001"/>
</g>
<!-- SessionService -->
<g id="node30" class="node">
<title>SessionService</title>
<ellipse fill="#fdb462" stroke="#000000" cx="1906" cy="-104" rx="69.4974" ry="18"/>
<text text-anchor="middle" x="1906" y="-99.8" font-family="Times,serif" font-size="14.00" fill="#000000">SessionService</text>
</g>
<!-- SessionService&#45;&gt;BamModule -->
<g id="edge36" class="edge">
<title>SessionService&#45;&gt;BamModule</title>
<path fill="none" stroke="#000000" d="M1906,-122.1061C1906,-141.3391 1906,-169 1906,-169 1906,-169 3499.7933,-169 3499.7933,-169"/>
<polygon fill="#000000" stroke="#000000" points="3499.7934,-172.5001 3509.7933,-169 3499.7933,-165.5001 3499.7934,-172.5001"/>
</g>
<!-- UsersService -->
<g id="node31" class="node">
<title>UsersService</title>
<ellipse fill="#fdb462" stroke="#000000" cx="1757" cy="-104" rx="61.9519" ry="18"/>
<text text-anchor="middle" x="1757" y="-99.8" font-family="Times,serif" font-size="14.00" fill="#000000">UsersService</text>
</g>
<!-- UsersService&#45;&gt;BamModule -->
<g id="edge37" class="edge">
<title>UsersService&#45;&gt;BamModule</title>
<path fill="none" stroke="#000000" d="M1757,-122.0348C1757,-141.5762 1757,-170 1757,-170 1757,-170 3499.936,-170 3499.936,-170"/>
<polygon fill="#000000" stroke="#000000" points="3499.936,-173.5001 3509.936,-170 3499.9359,-166.5001 3499.936,-173.5001"/>
</g>
<!-- SearchPipe -->
<g id="node32" class="node">
<title>SearchPipe</title>
<ellipse fill="#fdb462" stroke="#000000" cx="1623" cy="-104" rx="54.4508" ry="18"/>
<text text-anchor="middle" x="1623" y="-99.8" font-family="Times,serif" font-size="14.00" fill="#000000">SearchPipe</text>
</g>
<!-- SearchPipe&#45;&gt;BamModule -->
<g id="edge38" class="edge">
<title>SearchPipe&#45;&gt;BamModule</title>
<path fill="none" stroke="#000000" d="M1623,-122.2228C1623,-142.3652 1623,-172 1623,-172 1623,-172 3499.9832,-172 3499.9832,-172"/>
<polygon fill="#000000" stroke="#000000" points="3499.9832,-175.5001 3509.9832,-172 3499.9832,-168.5001 3499.9832,-175.5001"/>
</g>
<!-- BatchService -->
<g id="node33" class="node">
<title>BatchService</title>
<ellipse fill="#fdb462" stroke="#000000" cx="1488" cy="-104" rx="62.5354" ry="18"/>
<text text-anchor="middle" x="1488" y="-99.8" font-family="Times,serif" font-size="14.00" fill="#000000">BatchService</text>
</g>
<!-- BatchService&#45;&gt;BamModule -->
<g id="edge39" class="edge">
<title>BatchService&#45;&gt;BamModule</title>
<path fill="none" stroke="#000000" d="M1488,-122.1289C1488,-142.5724 1488,-173 1488,-173 1488,-173 3499.8695,-173 3499.8695,-173"/>
<polygon fill="#000000" stroke="#000000" points="3499.8696,-176.5001 3509.8695,-173 3499.8695,-169.5001 3499.8696,-176.5001"/>
</g>
<!-- CurriculumService -->
<g id="node34" class="node">
<title>CurriculumService</title>
<ellipse fill="#fdb462" stroke="#000000" cx="1323" cy="-104" rx="84.5266" ry="18"/>
<text text-anchor="middle" x="1323" y="-99.8" font-family="Times,serif" font-size="14.00" fill="#000000">CurriculumService</text>
</g>
<!-- CurriculumService&#45;&gt;BamModule -->
<g id="edge40" class="edge">
<title>CurriculumService&#45;&gt;BamModule</title>
<path fill="none" stroke="#000000" d="M1323,-122.2843C1323,-143.3211 1323,-175 1323,-175 1323,-175 3499.9508,-175 3499.9508,-175"/>
<polygon fill="#000000" stroke="#000000" points="3499.9508,-178.5001 3509.9508,-175 3499.9507,-171.5001 3499.9508,-178.5001"/>
</g>
<!-- CalendarService -->
<g id="node35" class="node">
<title>CalendarService</title>
<ellipse fill="#fdb462" stroke="#000000" cx="1146" cy="-104" rx="74.6956" ry="18"/>
<text text-anchor="middle" x="1146" y="-99.8" font-family="Times,serif" font-size="14.00" fill="#000000">CalendarService</text>
</g>
<!-- CalendarService&#45;&gt;BamModule -->
<g id="edge41" class="edge">
<title>CalendarService&#45;&gt;BamModule</title>
<path fill="none" stroke="#000000" d="M1146,-122.0449C1146,-143.6623 1146,-177 1146,-177 1146,-177 3499.9432,-177 3499.9432,-177"/>
<polygon fill="#000000" stroke="#000000" points="3499.9433,-180.5001 3509.9432,-177 3499.9432,-173.5001 3499.9433,-180.5001"/>
</g>
<!-- AddSubtopicService -->
<g id="node36" class="node">
<title>AddSubtopicService</title>
<ellipse fill="#fdb462" stroke="#000000" cx="962" cy="-104" rx="90.9129" ry="18"/>
<text text-anchor="middle" x="962" y="-99.8" font-family="Times,serif" font-size="14.00" fill="#000000">AddSubtopicService</text>
</g>
<!-- AddSubtopicService&#45;&gt;BamModule -->
<g id="edge42" class="edge">
<title>AddSubtopicService&#45;&gt;BamModule</title>
<path fill="none" stroke="#000000" d="M962,-122.2921C962,-144.2057 962,-178 962,-178 962,-178 3499.9226,-178 3499.9226,-178"/>
<polygon fill="#000000" stroke="#000000" points="3499.9227,-181.5001 3509.9226,-178 3499.9226,-174.5001 3499.9227,-181.5001"/>
</g>
<!-- CalendarStatusService -->
<g id="node37" class="node">
<title>CalendarStatusService</title>
<ellipse fill="#fdb462" stroke="#000000" cx="755" cy="-104" rx="98.4082" ry="18"/>
<text text-anchor="middle" x="755" y="-99.8" font-family="Times,serif" font-size="14.00" fill="#000000">CalendarStatusService</text>
</g>
<!-- CalendarStatusService&#45;&gt;BamModule -->
<g id="edge43" class="edge">
<title>CalendarStatusService&#45;&gt;BamModule</title>
<path fill="none" stroke="#000000" d="M755,-122.0109C755,-144.4852 755,-180 755,-180 755,-180 3499.8911,-180 3499.8911,-180"/>
<polygon fill="#000000" stroke="#000000" points="3499.8912,-183.5001 3509.8911,-180 3499.8911,-176.5001 3499.8912,-183.5001"/>
</g>
<!-- SearchTextService -->
<g id="node38" class="node">
<title>SearchTextService</title>
<ellipse fill="#fdb462" stroke="#000000" cx="555" cy="-104" rx="83.9238" ry="18"/>
<text text-anchor="middle" x="555" y="-99.8" font-family="Times,serif" font-size="14.00" fill="#000000">SearchTextService</text>
</g>
<!-- SearchTextService&#45;&gt;BamModule -->
<g id="edge44" class="edge">
<title>SearchTextService&#45;&gt;BamModule</title>
<path fill="none" stroke="#000000" d="M555,-122.2479C555,-145.0179 555,-181 555,-181 555,-181 3499.754,-181 3499.754,-181"/>
<polygon fill="#000000" stroke="#000000" points="3499.754,-184.5001 3509.754,-181 3499.7539,-177.5001 3499.754,-184.5001"/>
</g>
<!-- TopicService -->
<g id="node39" class="node">
<title>TopicService</title>
<ellipse fill="#fdb462" stroke="#000000" cx="391" cy="-104" rx="62.5373" ry="18"/>
<text text-anchor="middle" x="391" y="-99.8" font-family="Times,serif" font-size="14.00" fill="#000000">TopicService</text>
</g>
<!-- TopicService&#45;&gt;BamModule -->
<g id="edge45" class="edge">
<title>TopicService&#45;&gt;BamModule</title>
<path fill="none" stroke="#000000" d="M391,-122.3228C391,-145.6602 391,-183 391,-183 391,-183 3499.8027,-183 3499.8027,-183"/>
<polygon fill="#000000" stroke="#000000" points="3499.8027,-186.5001 3509.8027,-183 3499.8027,-179.5001 3499.8027,-186.5001"/>
</g>
<!-- SubtopicService -->
<g id="node40" class="node">
<title>SubtopicService</title>
<ellipse fill="#fdb462" stroke="#000000" cx="236" cy="-104" rx="74.1566" ry="18"/>
<text text-anchor="middle" x="236" y="-99.8" font-family="Times,serif" font-size="14.00" fill="#000000">SubtopicService</text>
</g>
<!-- SubtopicService&#45;&gt;BamModule -->
<g id="edge46" class="edge">
<title>SubtopicService&#45;&gt;BamModule</title>
<path fill="none" stroke="#000000" d="M236,-122.1532C236,-145.7566 236,-184 236,-184 236,-184 3499.8477,-184 3499.8477,-184"/>
<polygon fill="#000000" stroke="#000000" points="3499.8477,-187.5001 3509.8477,-184 3499.8477,-180.5001 3499.8477,-187.5001"/>
</g>
<!-- AlertService -->
<g id="node41" class="node">
<title>AlertService</title>
<ellipse fill="#fdb462" stroke="#000000" cx="84" cy="-104" rx="59.6646" ry="18"/>
<text text-anchor="middle" x="84" y="-99.8" font-family="Times,serif" font-size="14.00" fill="#000000">AlertService</text>
</g>
<!-- AlertService&#45;&gt;BamModule -->
<g id="edge47" class="edge">
<title>AlertService&#45;&gt;BamModule</title>
<path fill="none" stroke="#000000" d="M84,-122.1985C84,-146.3563 84,-186 84,-186 84,-186 3499.7669,-186 3499.7669,-186"/>
<polygon fill="#000000" stroke="#000000" points="3499.767,-189.5001 3509.7669,-186 3499.7669,-182.5001 3499.767,-189.5001"/>
</g>
</g>
</svg>
