<?xml version="1.0" encoding="UTF-8" standalone="no"?>
<!DOCTYPE svg PUBLIC "-//W3C//DTD SVG 1.1//EN"
 "http://www.w3.org/Graphics/SVG/1.1/DTD/svg11.dtd">
<!-- Generated by graphviz version 2.40.1 (20161225.0304)
 -->
<!-- Title: dependencies Pages: 1 -->
<svg width="6925pt" height="284pt"
 viewBox="0.00 0.00 6925.00 284.00" xmlns="http://www.w3.org/2000/svg" xmlns:xlink="http://www.w3.org/1999/xlink">
<g id="graph0" class="graph" transform="scale(1 1) rotate(0) translate(4 280)">
<title>dependencies</title>
<polygon fill="#ffffff" stroke="transparent" points="-4,4 -4,-280 6921,-280 6921,4 -4,4"/>
<text text-anchor="start" x="3437.5091" y="-42.4" font-family="sans-serif" font-weight="bold" font-size="14.00" fill="#000000">Legend</text>
<polygon fill="#ffffb3" stroke="transparent" points="3224.5,-10 3224.5,-30 3244.5,-30 3244.5,-10 3224.5,-10"/>
<text text-anchor="start" x="3248.129" y="-15.4" font-family="sans-serif" font-size="14.00" fill="#000000"> &#160;Declarations</text>
<polygon fill="#8dd3c7" stroke="transparent" points="3337.5,-10 3337.5,-30 3357.5,-30 3357.5,-10 3337.5,-10"/>
<text text-anchor="start" x="3361.2251" y="-15.4" font-family="sans-serif" font-size="14.00" fill="#000000"> &#160;Module</text>
<polygon fill="#80b1d3" stroke="transparent" points="3423.5,-10 3423.5,-30 3443.5,-30 3443.5,-10 3423.5,-10"/>
<text text-anchor="start" x="3447.2812" y="-15.4" font-family="sans-serif" font-size="14.00" fill="#000000"> &#160;Bootstrap</text>
<polygon fill="#fdb462" stroke="transparent" points="3520.5,-10 3520.5,-30 3540.5,-30 3540.5,-10 3520.5,-10"/>
<text text-anchor="start" x="3544.1732" y="-15.4" font-family="sans-serif" font-size="14.00" fill="#000000"> &#160;Providers</text>
<polygon fill="#fb8072" stroke="transparent" points="3616.5,-10 3616.5,-30 3636.5,-30 3636.5,-10 3616.5,-10"/>
<text text-anchor="start" x="3640.2258" y="-15.4" font-family="sans-serif" font-size="14.00" fill="#000000"> &#160;Exports</text>
<g id="clust1" class="cluster">
<title>cluster_BamModule</title>
<polygon fill="none" stroke="#000000" stroke-dasharray="1,5" points="8,-70 8,-268 6909,-268 6909,-70 8,-70"/>
</g>
<g id="clust2" class="cluster">
<title>cluster_BamModule_declarations</title>
<polygon fill="none" stroke="#000000" points="2202,-78 2202,-130 6901,-130 6901,-78 2202,-78"/>
</g>
<g id="clust30" class="cluster">
<title>cluster_BamModule_imports</title>
<polygon fill="none" stroke="#000000" points="2046,-78 2046,-130 2194,-130 2194,-78 2046,-78"/>
</g>
<g id="clust31" class="cluster">
<title>cluster_BamModule_exports</title>
<polygon fill="none" stroke="#000000" points="3503,-208 3503,-260 3601,-260 3601,-208 3503,-208"/>
</g>
<g id="clust33" class="cluster">
<title>cluster_BamModule_providers</title>
<polygon fill="none" stroke="#000000" points="16,-78 16,-130 2038,-130 2038,-78 16,-78"/>
</g>
<!-- BamComponent -->
<g id="node1" class="node">
<title>BamComponent</title>
<polygon fill="#ffffb3" stroke="#000000" points="6892.7744,-122 6785.2256,-122 6785.2256,-86 6892.7744,-86 6892.7744,-122"/>
<text text-anchor="middle" x="6839" y="-99.8" font-family="Times,serif" font-size="14.00" fill="#000000">BamComponent</text>
</g>
<!-- BamModule -->
<g id="node28" class="node">
<title>BamModule</title>
<polygon fill="#8dd3c7" stroke="#000000" points="3594.9916,-187 3591.9916,-191 3570.9916,-191 3567.9916,-187 3509.0084,-187 3509.0084,-151 3594.9916,-151 3594.9916,-187"/>
<text text-anchor="middle" x="3552" y="-164.8" font-family="Times,serif" font-size="14.00" fill="#000000">BamModule</text>
</g>
<!-- BamComponent&#45;&gt;BamModule -->
<g id="edge1" class="edge">
<title>BamComponent&#45;&gt;BamModule</title>
<path fill="none" stroke="#000000" d="M6839,-122.1985C6839,-146.3563 6839,-186 6839,-186 6839,-186 3605.0651,-186 3605.0651,-186"/>
<polygon fill="#000000" stroke="#000000" points="3605.0651,-182.5001 3595.0651,-186 3605.0651,-189.5001 3605.0651,-182.5001"/>
</g>
<!-- HomeComponent -->
<g id="node2" class="node">
<title>HomeComponent</title>
<polygon fill="#ffffb3" stroke="#000000" points="6766.5451,-122 6651.4549,-122 6651.4549,-86 6766.5451,-86 6766.5451,-122"/>
<text text-anchor="middle" x="6709" y="-99.8" font-family="Times,serif" font-size="14.00" fill="#000000">HomeComponent</text>
</g>
<!-- HomeComponent&#45;&gt;BamModule -->
<g id="edge2" class="edge">
<title>HomeComponent&#45;&gt;BamModule</title>
<path fill="none" stroke="#000000" d="M6709,-122.1532C6709,-145.7566 6709,-184 6709,-184 6709,-184 3605.129,-184 3605.129,-184"/>
<polygon fill="#000000" stroke="#000000" points="3605.129,-180.5001 3595.129,-184 3605.129,-187.5001 3605.129,-180.5001"/>
</g>
<!-- CurriculumWeekComponent -->
<g id="node3" class="node">
<title>CurriculumWeekComponent</title>
<polygon fill="#ffffb3" stroke="#000000" points="6633.021,-122 6454.979,-122 6454.979,-86 6633.021,-86 6633.021,-122"/>
<text text-anchor="middle" x="6544" y="-99.8" font-family="Times,serif" font-size="14.00" fill="#000000">CurriculumWeekComponent</text>
</g>
<!-- CurriculumWeekComponent&#45;&gt;BamModule -->
<g id="edge3" class="edge">
<title>CurriculumWeekComponent&#45;&gt;BamModule</title>
<path fill="none" stroke="#000000" d="M6544,-122.3228C6544,-145.6602 6544,-183 6544,-183 6544,-183 3605.1595,-183 3605.1595,-183"/>
<polygon fill="#000000" stroke="#000000" points="3605.1595,-179.5001 3595.1595,-183 3605.1594,-186.5001 3605.1595,-179.5001"/>
</g>
<!-- MainCurriculumViewComponent -->
<g id="node4" class="node">
<title>MainCurriculumViewComponent</title>
<polygon fill="#ffffb3" stroke="#000000" points="6436.745,-122 6231.255,-122 6231.255,-86 6436.745,-86 6436.745,-122"/>
<text text-anchor="middle" x="6334" y="-99.8" font-family="Times,serif" font-size="14.00" fill="#000000">MainCurriculumViewComponent</text>
</g>
<!-- MainCurriculumViewComponent&#45;&gt;BamModule -->
<g id="edge4" class="edge">
<title>MainCurriculumViewComponent&#45;&gt;BamModule</title>
<path fill="none" stroke="#000000" d="M6334,-122.2479C6334,-145.0179 6334,-181 6334,-181 6334,-181 3605.1403,-181 3605.1403,-181"/>
<polygon fill="#000000" stroke="#000000" points="3605.1403,-177.5001 3595.1403,-181 3605.1402,-184.5001 3605.1403,-177.5001"/>
</g>
<!-- TopicPoolComponent -->
<g id="node5" class="node">
<title>TopicPoolComponent</title>
<polygon fill="#ffffb3" stroke="#000000" points="6212.6638,-122 6073.3362,-122 6073.3362,-86 6212.6638,-86 6212.6638,-122"/>
<text text-anchor="middle" x="6143" y="-99.8" font-family="Times,serif" font-size="14.00" fill="#000000">TopicPoolComponent</text>
</g>
<!-- TopicPoolComponent&#45;&gt;BamModule -->
<g id="edge5" class="edge">
<title>TopicPoolComponent&#45;&gt;BamModule</title>
<path fill="none" stroke="#000000" d="M6143,-122.0109C6143,-144.4852 6143,-180 6143,-180 6143,-180 3605.0774,-180 3605.0774,-180"/>
<polygon fill="#000000" stroke="#000000" points="3605.0774,-176.5001 3595.0774,-180 3605.0773,-183.5001 3605.0774,-176.5001"/>
</g>
<!-- CourseStructureComponent -->
<g id="node6" class="node">
<title>CourseStructureComponent</title>
<polygon fill="#ffffb3" stroke="#000000" points="6055.3033,-122 5882.6967,-122 5882.6967,-86 6055.3033,-86 6055.3033,-122"/>
<text text-anchor="middle" x="5969" y="-99.8" font-family="Times,serif" font-size="14.00" fill="#000000">CourseStructureComponent</text>
</g>
<!-- CourseStructureComponent&#45;&gt;BamModule -->
<g id="edge6" class="edge">
<title>CourseStructureComponent&#45;&gt;BamModule</title>
<path fill="none" stroke="#000000" d="M5969,-122.2921C5969,-144.2057 5969,-178 5969,-178 5969,-178 3605.2356,-178 3605.2356,-178"/>
<polygon fill="#000000" stroke="#000000" points="3605.2357,-174.5001 3595.2356,-178 3605.2356,-181.5001 3605.2357,-174.5001"/>
</g>
<!-- MyBatchesComponent -->
<g id="node7" class="node">
<title>MyBatchesComponent</title>
<polygon fill="#ffffb3" stroke="#000000" points="5864.5926,-122 5719.4074,-122 5719.4074,-86 5864.5926,-86 5864.5926,-122"/>
<text text-anchor="middle" x="5792" y="-99.8" font-family="Times,serif" font-size="14.00" fill="#000000">MyBatchesComponent</text>
</g>
<!-- MyBatchesComponent&#45;&gt;BamModule -->
<g id="edge7" class="edge">
<title>MyBatchesComponent&#45;&gt;BamModule</title>
<path fill="none" stroke="#000000" d="M5792,-122.0449C5792,-143.6623 5792,-177 5792,-177 5792,-177 3605.2423,-177 3605.2423,-177"/>
<polygon fill="#000000" stroke="#000000" points="3605.2423,-173.5001 3595.2423,-177 3605.2422,-180.5001 3605.2423,-173.5001"/>
</g>
<!-- AllBatchesComponent -->
<g id="node8" class="node">
<title>AllBatchesComponent</title>
<polygon fill="#ffffb3" stroke="#000000" points="5701.5365,-122 5558.4635,-122 5558.4635,-86 5701.5365,-86 5701.5365,-122"/>
<text text-anchor="middle" x="5630" y="-99.8" font-family="Times,serif" font-size="14.00" fill="#000000">AllBatchesComponent</text>
</g>
<!-- AllBatchesComponent&#45;&gt;BamModule -->
<g id="edge8" class="edge">
<title>AllBatchesComponent&#45;&gt;BamModule</title>
<path fill="none" stroke="#000000" d="M5630,-122.2843C5630,-143.3211 5630,-175 5630,-175 5630,-175 3605.402,-175 3605.402,-175"/>
<polygon fill="#000000" stroke="#000000" points="3605.402,-171.5001 3595.402,-175 3605.4019,-178.5001 3605.402,-171.5001"/>
</g>
<!-- BatchesTableComponent -->
<g id="node9" class="node">
<title>BatchesTableComponent</title>
<polygon fill="#ffffb3" stroke="#000000" points="5539.5211,-122 5382.4789,-122 5382.4789,-86 5539.5211,-86 5539.5211,-122"/>
<text text-anchor="middle" x="5461" y="-99.8" font-family="Times,serif" font-size="14.00" fill="#000000">BatchesTableComponent</text>
</g>
<!-- BatchesTableComponent&#45;&gt;BamModule -->
<g id="edge9" class="edge">
<title>BatchesTableComponent&#45;&gt;BamModule</title>
<path fill="none" stroke="#000000" d="M5461,-122.0267C5461,-142.7672 5461,-174 5461,-174 5461,-174 3605.0027,-174 3605.0027,-174"/>
<polygon fill="#000000" stroke="#000000" points="3605.0027,-170.5001 3595.0027,-174 3605.0027,-177.5001 3605.0027,-170.5001"/>
</g>
<!-- BatchesSearchComponent -->
<g id="node10" class="node">
<title>BatchesSearchComponent</title>
<polygon fill="#ffffb3" stroke="#000000" points="5363.7352,-122 5200.2648,-122 5200.2648,-86 5363.7352,-86 5363.7352,-122"/>
<text text-anchor="middle" x="5282" y="-99.8" font-family="Times,serif" font-size="14.00" fill="#000000">BatchesSearchComponent</text>
</g>
<!-- BatchesSearchComponent&#45;&gt;BamModule -->
<g id="edge10" class="edge">
<title>BatchesSearchComponent&#45;&gt;BamModule</title>
<path fill="none" stroke="#000000" d="M5282,-122.2228C5282,-142.3652 5282,-172 5282,-172 5282,-172 3605.1959,-172 3605.1959,-172"/>
<polygon fill="#000000" stroke="#000000" points="3605.1959,-168.5001 3595.1959,-172 3605.1959,-175.5001 3605.1959,-168.5001"/>
</g>
<!-- EditBatchComponent -->
<g id="node11" class="node">
<title>EditBatchComponent</title>
<polygon fill="#ffffb3" stroke="#000000" points="5181.823,-122 5044.177,-122 5044.177,-86 5181.823,-86 5181.823,-122"/>
<text text-anchor="middle" x="5113" y="-99.8" font-family="Times,serif" font-size="14.00" fill="#000000">EditBatchComponent</text>
</g>
<!-- EditBatchComponent&#45;&gt;BamModule -->
<g id="edge11" class="edge">
<title>EditBatchComponent&#45;&gt;BamModule</title>
<path fill="none" stroke="#000000" d="M5090.1129,-122.1061C5090.1129,-141.3391 5090.1129,-169 5090.1129,-169 5090.1129,-169 3605.1483,-169 3605.1483,-169"/>
<polygon fill="#000000" stroke="#000000" points="3605.1483,-165.5001 3595.1483,-169 3605.1483,-172.5001 3605.1483,-165.5001"/>
</g>
<!-- EditBatchComponent&#45;&gt;BamModule -->
<g id="edge17" class="edge">
<title>EditBatchComponent&#45;&gt;BamModule</title>
<path fill="none" stroke="#000000" d="M5135.8871,-122.308C5135.8871,-142.1455 5135.8871,-171 5135.8871,-171 5135.8871,-171 3605.1866,-171 3605.1866,-171"/>
<polygon fill="#000000" stroke="#000000" points="3605.1866,-167.5001 3595.1866,-171 3605.1866,-174.5001 3605.1866,-167.5001"/>
</g>
<!-- WelcomeComponent -->
<g id="node12" class="node">
<title>WelcomeComponent</title>
<polygon fill="#ffffb3" stroke="#000000" points="5026.472,-122 4891.528,-122 4891.528,-86 5026.472,-86 5026.472,-122"/>
<text text-anchor="middle" x="4959" y="-99.8" font-family="Times,serif" font-size="14.00" fill="#000000">WelcomeComponent</text>
</g>
<!-- WelcomeComponent&#45;&gt;BamModule -->
<g id="edge12" class="edge">
<title>WelcomeComponent&#45;&gt;BamModule</title>
<path fill="none" stroke="#000000" d="M4959,-122.1686C4959,-141.0898 4959,-168 4959,-168 4959,-168 3605.2635,-168 3605.2635,-168"/>
<polygon fill="#000000" stroke="#000000" points="3605.2635,-164.5001 3595.2635,-168 3605.2634,-171.5001 3605.2635,-164.5001"/>
</g>
<!-- DashboardInfoComponent -->
<g id="node13" class="node">
<title>DashboardInfoComponent</title>
<polygon fill="#ffffb3" stroke="#000000" points="4873.7949,-122 4708.2051,-122 4708.2051,-86 4873.7949,-86 4873.7949,-122"/>
<text text-anchor="middle" x="4791" y="-99.8" font-family="Times,serif" font-size="14.00" fill="#000000">DashboardInfoComponent</text>
</g>
<!-- DashboardInfoComponent&#45;&gt;BamModule -->
<g id="edge13" class="edge">
<title>DashboardInfoComponent&#45;&gt;BamModule</title>
<path fill="none" stroke="#000000" d="M4763.4509,-122.302C4763.4509,-140.2699 4763.4509,-165 4763.4509,-165 4763.4509,-165 3605.1162,-165 3605.1162,-165"/>
<polygon fill="#000000" stroke="#000000" points="3605.1162,-161.5001 3595.1162,-165 3605.1161,-168.5001 3605.1162,-161.5001"/>
</g>
<!-- DashboardInfoComponent&#45;&gt;BamModule -->
<g id="edge22" class="edge">
<title>DashboardInfoComponent&#45;&gt;BamModule</title>
<path fill="none" stroke="#000000" d="M4818.5491,-122.2667C4818.5491,-140.5552 4818.5491,-166 4818.5491,-166 4818.5491,-166 3605.2311,-166 3605.2311,-166"/>
<polygon fill="#000000" stroke="#000000" points="3605.2311,-162.5001 3595.2311,-166 3605.2311,-169.5001 3605.2311,-162.5001"/>
</g>
<!-- BatchProgressBarComponent -->
<g id="node14" class="node">
<title>BatchProgressBarComponent</title>
<polygon fill="#ffffb3" stroke="#000000" points="4690.4087,-122 4507.5913,-122 4507.5913,-86 4690.4087,-86 4690.4087,-122"/>
<text text-anchor="middle" x="4599" y="-99.8" font-family="Times,serif" font-size="14.00" fill="#000000">BatchProgressBarComponent</text>
</g>
<!-- BatchProgressBarComponent&#45;&gt;BamModule -->
<g id="edge14" class="edge">
<title>BatchProgressBarComponent&#45;&gt;BamModule</title>
<path fill="none" stroke="#000000" d="M4629.4014,-122.0225C4629.4014,-139.3734 4629.4014,-163 4629.4014,-163 4629.4014,-163 3605.2345,-163 3605.2345,-163"/>
<polygon fill="#000000" stroke="#000000" points="3605.2345,-159.5001 3595.2345,-163 3605.2344,-166.5001 3605.2345,-159.5001"/>
</g>
<!-- BatchProgressBarComponent&#45;&gt;BamModule -->
<g id="edge19" class="edge">
<title>BatchProgressBarComponent&#45;&gt;BamModule</title>
<path fill="none" stroke="#000000" d="M4568.5986,-122.0336C4568.5986,-139.0597 4568.5986,-162 4568.5986,-162 4568.5986,-162 3605.0326,-162 3605.0326,-162"/>
<polygon fill="#000000" stroke="#000000" points="3605.0327,-158.5001 3595.0326,-162 3605.0326,-165.5001 3605.0327,-158.5001"/>
</g>
<!-- LoadingSpinnerComponent -->
<g id="node15" class="node">
<title>LoadingSpinnerComponent</title>
<polygon fill="#ffffb3" stroke="#000000" points="4489.5392,-122 4318.4608,-122 4318.4608,-86 4489.5392,-86 4489.5392,-122"/>
<text text-anchor="middle" x="4404" y="-99.8" font-family="Times,serif" font-size="14.00" fill="#000000">LoadingSpinnerComponent</text>
</g>
<!-- LoadingSpinnerComponent&#45;&gt;BamModule -->
<g id="edge15" class="edge">
<title>LoadingSpinnerComponent&#45;&gt;BamModule</title>
<path fill="none" stroke="#000000" d="M4375.4102,-122.0091C4375.4102,-138.0494 4375.4102,-159 4375.4102,-159 4375.4102,-159 3605.1108,-159 3605.1108,-159"/>
<polygon fill="#000000" stroke="#000000" points="3605.1108,-155.5001 3595.1108,-159 3605.1107,-162.5001 3605.1108,-155.5001"/>
</g>
<!-- LoadingSpinnerComponent&#45;&gt;BamModule -->
<g id="edge21" class="edge">
<title>LoadingSpinnerComponent&#45;&gt;BamModule</title>
<path fill="none" stroke="#000000" d="M4432.5898,-122.027C4432.5898,-138.3976 4432.5898,-160 4432.5898,-160 4432.5898,-160 3605.0688,-160 3605.0688,-160"/>
<polygon fill="#000000" stroke="#000000" points="3605.0688,-156.5001 3595.0688,-160 3605.0687,-163.5001 3605.0688,-156.5001"/>
</g>
<!-- AddAssociateToBatchComponent -->
<g id="node16" class="node">
<title>AddAssociateToBatchComponent</title>
<polygon fill="#ffffb3" stroke="#000000" points="4300.0688,-122 4091.9312,-122 4091.9312,-86 4300.0688,-86 4300.0688,-122"/>
<text text-anchor="middle" x="4196" y="-99.8" font-family="Times,serif" font-size="14.00" fill="#000000">AddAssociateToBatchComponent</text>
</g>
<!-- AddAssociateToBatchComponent&#45;&gt;BamModule -->
<g id="edge16" class="edge">
<title>AddAssociateToBatchComponent&#45;&gt;BamModule</title>
<path fill="none" stroke="#000000" d="M4196,-122.2396C4196,-137.5706 4196,-157 4196,-157 4196,-157 3605.0037,-157 3605.0037,-157"/>
<polygon fill="#000000" stroke="#000000" points="3605.0037,-153.5001 3595.0037,-157 3605.0037,-160.5001 3605.0037,-153.5001"/>
</g>
<!-- RemoveAssociateFromBatchComponent -->
<g id="node17" class="node">
<title>RemoveAssociateFromBatchComponent</title>
<polygon fill="#ffffb3" stroke="#000000" points="4073.9001,-122 3828.0999,-122 3828.0999,-86 4073.9001,-86 4073.9001,-122"/>
<text text-anchor="middle" x="3951" y="-99.8" font-family="Times,serif" font-size="14.00" fill="#000000">RemoveAssociateFromBatchComponent</text>
</g>
<!-- RemoveAssociateFromBatchComponent&#45;&gt;BamModule -->
<g id="edge18" class="edge">
<title>RemoveAssociateFromBatchComponent&#45;&gt;BamModule</title>
<path fill="none" stroke="#000000" d="M3951,-122.1871C3951,-137.1824 3951,-156 3951,-156 3951,-156 3605.0791,-156 3605.0791,-156"/>
<polygon fill="#000000" stroke="#000000" points="3605.0791,-152.5001 3595.0791,-156 3605.0791,-159.5001 3605.0791,-152.5001"/>
</g>
<!-- AddSubtopicComponent -->
<g id="node18" class="node">
<title>AddSubtopicComponent</title>
<polygon fill="#ffffb3" stroke="#000000" points="3810.7176,-122 3655.2824,-122 3655.2824,-86 3810.7176,-86 3810.7176,-122"/>
<text text-anchor="middle" x="3733" y="-99.8" font-family="Times,serif" font-size="14.00" fill="#000000">AddSubtopicComponent</text>
</g>
<!-- AddSubtopicComponent&#45;&gt;BamModule -->
<g id="edge20" class="edge">
<title>AddSubtopicComponent&#45;&gt;BamModule</title>
<path fill="none" stroke="#000000" d="M3707.1304,-122.2458C3707.1304,-136.1772 3707.1304,-153 3707.1304,-153 3707.1304,-153 3605.2125,-153 3605.2125,-153"/>
<polygon fill="#000000" stroke="#000000" points="3605.2125,-149.5001 3595.2125,-153 3605.2124,-156.5001 3605.2125,-149.5001"/>
</g>
<!-- AddSubtopicComponent&#45;&gt;BamModule -->
<g id="edge27" class="edge">
<title>AddSubtopicComponent&#45;&gt;BamModule</title>
<path fill="none" stroke="#000000" d="M3758.8696,-122.0511C3758.8696,-136.373 3758.8696,-154 3758.8696,-154 3758.8696,-154 3605.1148,-154 3605.1148,-154"/>
<polygon fill="#000000" stroke="#000000" points="3605.1149,-150.5001 3595.1148,-154 3605.1148,-157.5001 3605.1149,-150.5001"/>
</g>
<!-- ViewAssociatesComponent -->
<g id="node19" class="node">
<title>ViewAssociatesComponent</title>
<polygon fill="#ffffb3" stroke="#000000" points="3637.5169,-122 3466.4831,-122 3466.4831,-86 3637.5169,-86 3637.5169,-122"/>
<text text-anchor="middle" x="3552" y="-99.8" font-family="Times,serif" font-size="14.00" fill="#000000">ViewAssociatesComponent</text>
</g>
<!-- ViewAssociatesComponent&#45;&gt;BamModule -->
<g id="edge23" class="edge">
<title>ViewAssociatesComponent&#45;&gt;BamModule</title>
<path fill="none" stroke="#000000" d="M3537.6681,-122.1061C3537.6681,-122.1061 3537.6681,-140.991 3537.6681,-140.991"/>
<polygon fill="#000000" stroke="#000000" points="3534.1682,-140.9909 3537.6681,-150.991 3541.1682,-140.991 3534.1682,-140.9909"/>
</g>
<!-- ViewAssociatesComponent&#45;&gt;BamModule -->
<g id="edge25" class="edge">
<title>ViewAssociatesComponent&#45;&gt;BamModule</title>
<path fill="none" stroke="#000000" d="M3566.3319,-122.1061C3566.3319,-122.1061 3566.3319,-140.991 3566.3319,-140.991"/>
<polygon fill="#000000" stroke="#000000" points="3562.832,-140.9909 3566.3319,-150.991 3569.832,-140.991 3562.832,-140.9909"/>
</g>
<!-- CalendarComponent -->
<g id="node20" class="node">
<title>CalendarComponent</title>
<polygon fill="#ffffb3" stroke="#000000" points="3447.8641,-122 3316.1359,-122 3316.1359,-86 3447.8641,-86 3447.8641,-122"/>
<text text-anchor="middle" x="3382" y="-99.8" font-family="Times,serif" font-size="14.00" fill="#000000">CalendarComponent</text>
</g>
<!-- CalendarComponent&#45;&gt;BamModule -->
<g id="edge24" class="edge">
<title>CalendarComponent&#45;&gt;BamModule</title>
<path fill="none" stroke="#000000" d="M3403.9773,-122.2458C3403.9773,-136.1772 3403.9773,-153 3403.9773,-153 3403.9773,-153 3498.7878,-153 3498.7878,-153"/>
<polygon fill="#000000" stroke="#000000" points="3498.7878,-156.5001 3508.7878,-153 3498.7878,-149.5001 3498.7878,-156.5001"/>
</g>
<!-- CalendarComponent&#45;&gt;BamModule -->
<g id="edge26" class="edge">
<title>CalendarComponent&#45;&gt;BamModule</title>
<path fill="none" stroke="#000000" d="M3360.0227,-122.0511C3360.0227,-136.373 3360.0227,-154 3360.0227,-154 3360.0227,-154 3498.9165,-154 3498.9165,-154"/>
<polygon fill="#000000" stroke="#000000" points="3498.9166,-157.5001 3508.9165,-154 3498.9165,-150.5001 3498.9166,-157.5001"/>
</g>
<!-- TopicSearchComponent -->
<g id="node21" class="node">
<title>TopicSearchComponent</title>
<polygon fill="#ffffb3" stroke="#000000" points="3298.0772,-122 3145.9228,-122 3145.9228,-86 3298.0772,-86 3298.0772,-122"/>
<text text-anchor="middle" x="3222" y="-99.8" font-family="Times,serif" font-size="14.00" fill="#000000">TopicSearchComponent</text>
</g>
<!-- TopicSearchComponent&#45;&gt;BamModule -->
<g id="edge28" class="edge">
<title>TopicSearchComponent&#45;&gt;BamModule</title>
<path fill="none" stroke="#000000" d="M3222,-122.1871C3222,-137.1824 3222,-156 3222,-156 3222,-156 3498.8583,-156 3498.8583,-156"/>
<polygon fill="#000000" stroke="#000000" points="3498.8583,-159.5001 3508.8583,-156 3498.8582,-152.5001 3498.8583,-159.5001"/>
</g>
<!-- SubtopicSearchComponent -->
<g id="node22" class="node">
<title>SubtopicSearchComponent</title>
<polygon fill="#ffffb3" stroke="#000000" points="3127.6979,-122 2958.3021,-122 2958.3021,-86 3127.6979,-86 3127.6979,-122"/>
<text text-anchor="middle" x="3043" y="-99.8" font-family="Times,serif" font-size="14.00" fill="#000000">SubtopicSearchComponent</text>
</g>
<!-- SubtopicSearchComponent&#45;&gt;BamModule -->
<g id="edge29" class="edge">
<title>SubtopicSearchComponent&#45;&gt;BamModule</title>
<path fill="none" stroke="#000000" d="M3043,-122.2396C3043,-137.5706 3043,-157 3043,-157 3043,-157 3498.6029,-157 3498.6029,-157"/>
<polygon fill="#000000" stroke="#000000" points="3498.603,-160.5001 3508.6029,-157 3498.6029,-153.5001 3498.603,-160.5001"/>
</g>
<!-- SearchPipe -->
<g id="node23" class="node">
<title>SearchPipe</title>
<ellipse fill="#ffffb3" stroke="#000000" cx="2886" cy="-104" rx="54.4508" ry="18"/>
<text text-anchor="middle" x="2886" y="-99.8" font-family="Times,serif" font-size="14.00" fill="#000000">SearchPipe</text>
</g>
<!-- SearchPipe&#45;&gt;BamModule -->
<g id="edge30" class="edge">
<title>SearchPipe&#45;&gt;BamModule</title>
<path fill="none" stroke="#000000" d="M2904.1585,-121.1009C2904.1585,-137.2462 2904.1585,-159 2904.1585,-159 2904.1585,-159 3498.9916,-159 3498.9916,-159"/>
<polygon fill="#000000" stroke="#000000" points="3498.9916,-162.5001 3508.9916,-159 3498.9916,-155.5001 3498.9916,-162.5001"/>
</g>
<!-- SearchPipe&#45;&gt;BamModule -->
<g id="edge40" class="edge">
<title>SearchPipe&#45;&gt;BamModule</title>
<path fill="none" stroke="#000000" d="M2867.8415,-121.1061C2867.8415,-137.5747 2867.8415,-160 2867.8415,-160 2867.8415,-160 3498.9436,-160 3498.9436,-160"/>
<polygon fill="#000000" stroke="#000000" points="3498.9437,-163.5001 3508.9436,-160 3498.9436,-156.5001 3498.9437,-163.5001"/>
</g>
<!-- FilterBatchPipe -->
<g id="node24" class="node">
<title>FilterBatchPipe</title>
<polygon fill="#ffffb3" stroke="#000000" points="2813.8739,-122 2710.1261,-122 2710.1261,-86 2813.8739,-86 2813.8739,-122"/>
<text text-anchor="middle" x="2762" y="-99.8" font-family="Times,serif" font-size="14.00" fill="#000000">FilterBatchPipe</text>
</g>
<!-- FilterBatchPipe&#45;&gt;BamModule -->
<g id="edge31" class="edge">
<title>FilterBatchPipe&#45;&gt;BamModule</title>
<path fill="none" stroke="#000000" d="M2762,-122.0336C2762,-139.0597 2762,-162 2762,-162 2762,-162 3498.9651,-162 3498.9651,-162"/>
<polygon fill="#000000" stroke="#000000" points="3498.9652,-165.5001 3508.9651,-162 3498.9651,-158.5001 3498.9652,-165.5001"/>
</g>
<!-- AlertsComponent -->
<g id="node25" class="node">
<title>AlertsComponent</title>
<polygon fill="#ffffb3" stroke="#000000" points="2691.5409,-122 2576.4591,-122 2576.4591,-86 2691.5409,-86 2691.5409,-122"/>
<text text-anchor="middle" x="2634" y="-99.8" font-family="Times,serif" font-size="14.00" fill="#000000">AlertsComponent</text>
</g>
<!-- AlertsComponent&#45;&gt;BamModule -->
<g id="edge32" class="edge">
<title>AlertsComponent&#45;&gt;BamModule</title>
<path fill="none" stroke="#000000" d="M2634,-122.0225C2634,-139.3734 2634,-163 2634,-163 2634,-163 3498.9542,-163 3498.9542,-163"/>
<polygon fill="#000000" stroke="#000000" points="3498.9543,-166.5001 3508.9542,-163 3498.9542,-159.5001 3498.9543,-166.5001"/>
</g>
<!-- BoomComponent -->
<g id="node26" class="node">
<title>BoomComponent</title>
<polygon fill="#ffffb3" stroke="#000000" points="2557.5604,-122 2442.4396,-122 2442.4396,-86 2557.5604,-86 2557.5604,-122"/>
<text text-anchor="middle" x="2500" y="-99.8" font-family="Times,serif" font-size="14.00" fill="#000000">BoomComponent</text>
</g>
<!-- BoomComponent&#45;&gt;BamModule -->
<g id="edge33" class="edge">
<title>BoomComponent&#45;&gt;BamModule</title>
<path fill="none" stroke="#000000" d="M2500,-122.302C2500,-140.2699 2500,-165 2500,-165 2500,-165 3498.7991,-165 3498.7991,-165"/>
<polygon fill="#000000" stroke="#000000" points="3498.7991,-168.5001 3508.7991,-165 3498.7991,-161.5001 3498.7991,-168.5001"/>
</g>
<!-- ExistingSubtopicModalComponent -->
<g id="node27" class="node">
<title>ExistingSubtopicModalComponent</title>
<polygon fill="#ffffb3" stroke="#000000" points="2424.3299,-122 2209.6701,-122 2209.6701,-86 2424.3299,-86 2424.3299,-122"/>
<text text-anchor="middle" x="2317" y="-99.8" font-family="Times,serif" font-size="14.00" fill="#000000">ExistingSubtopicModalComponent</text>
</g>
<!-- ExistingSubtopicModalComponent&#45;&gt;BamModule -->
<g id="edge34" class="edge">
<title>ExistingSubtopicModalComponent&#45;&gt;BamModule</title>
<path fill="none" stroke="#000000" d="M2317,-122.2667C2317,-140.5552 2317,-166 2317,-166 2317,-166 3498.7698,-166 3498.7698,-166"/>
<polygon fill="#000000" stroke="#000000" points="3498.7699,-169.5001 3508.7698,-166 3498.7698,-162.5001 3498.7699,-169.5001"/>
</g>
<!-- SearchPipe  -->
<g id="node30" class="node">
<title>SearchPipe </title>
<polygon fill="#fb8072" stroke="#000000" points="3593.4762,-252 3510.5238,-252 3510.5238,-216 3593.4762,-216 3593.4762,-252"/>
<text text-anchor="middle" x="3552" y="-229.8" font-family="Times,serif" font-size="14.00" fill="#000000">SearchPipe </text>
</g>
<!-- BamModule&#45;&gt;SearchPipe  -->
<g id="edge36" class="edge">
<title>BamModule&#45;&gt;SearchPipe </title>
<path fill="none" stroke="#000000" stroke-dasharray="5,2" d="M3552,-187.1061C3552,-187.1061 3552,-205.991 3552,-205.991"/>
<polygon fill="#000000" stroke="#000000" points="3548.5001,-205.9909 3552,-215.991 3555.5001,-205.991 3548.5001,-205.9909"/>
</g>
<!-- BamRoutingModule -->
<g id="node29" class="node">
<title>BamRoutingModule</title>
<polygon fill="#8dd3c7" stroke="#000000" points="2185.6094,-122 2182.6094,-126 2161.6094,-126 2158.6094,-122 2054.3906,-122 2054.3906,-86 2185.6094,-86 2185.6094,-122"/>
<text text-anchor="middle" x="2120" y="-99.8" font-family="Times,serif" font-size="14.00" fill="#000000">BamRoutingModule</text>
</g>
<!-- BamRoutingModule&#45;&gt;BamModule -->
<g id="edge35" class="edge">
<title>BamRoutingModule&#45;&gt;BamModule</title>
<path fill="none" stroke="#000000" d="M2120,-122.1686C2120,-141.0898 2120,-168 2120,-168 2120,-168 3498.7529,-168 3498.7529,-168"/>
<polygon fill="#000000" stroke="#000000" points="3498.753,-171.5001 3508.7529,-168 3498.7529,-164.5001 3498.753,-171.5001"/>
</g>
<!-- DragndropService -->
<g id="node31" class="node">
<title>DragndropService</title>
<ellipse fill="#fdb462" stroke="#000000" cx="1948" cy="-104" rx="81.6442" ry="18"/>
<text text-anchor="middle" x="1948" y="-99.8" font-family="Times,serif" font-size="14.00" fill="#000000">DragndropService</text>
</g>
<!-- DragndropService&#45;&gt;BamModule -->
<g id="edge37" class="edge">
<title>DragndropService&#45;&gt;BamModule</title>
<path fill="none" stroke="#000000" d="M1948,-122.1061C1948,-141.3391 1948,-169 1948,-169 1948,-169 3498.6819,-169 3498.6819,-169"/>
<polygon fill="#000000" stroke="#000000" points="3498.6819,-172.5001 3508.6819,-169 3498.6818,-165.5001 3498.6819,-172.5001"/>
</g>
<!-- SessionService -->
<g id="node32" class="node">
<title>SessionService</title>
<ellipse fill="#fdb462" stroke="#000000" cx="1779" cy="-104" rx="69.4974" ry="18"/>
<text text-anchor="middle" x="1779" y="-99.8" font-family="Times,serif" font-size="14.00" fill="#000000">SessionService</text>
</g>
<!-- SessionService&#45;&gt;BamModule -->
<g id="edge38" class="edge">
<title>SessionService&#45;&gt;BamModule</title>
<path fill="none" stroke="#000000" d="M1779,-122.308C1779,-142.1455 1779,-171 1779,-171 1779,-171 3498.6131,-171 3498.6131,-171"/>
<polygon fill="#000000" stroke="#000000" points="3498.6131,-174.5001 3508.6131,-171 3498.613,-167.5001 3498.6131,-174.5001"/>
</g>
<!-- UsersService -->
<g id="node33" class="node">
<title>UsersService</title>
<ellipse fill="#fdb462" stroke="#000000" cx="1630" cy="-104" rx="61.9519" ry="18"/>
<text text-anchor="middle" x="1630" y="-99.8" font-family="Times,serif" font-size="14.00" fill="#000000">UsersService</text>
</g>
<!-- UsersService&#45;&gt;BamModule -->
<g id="edge39" class="edge">
<title>UsersService&#45;&gt;BamModule</title>
<path fill="none" stroke="#000000" d="M1630,-122.2228C1630,-142.3652 1630,-172 1630,-172 1630,-172 3498.7045,-172 3498.7045,-172"/>
<polygon fill="#000000" stroke="#000000" points="3498.7045,-175.5001 3508.7045,-172 3498.7044,-168.5001 3498.7045,-175.5001"/>
</g>
<!-- BatchService -->
<g id="node34" class="node">
<title>BatchService</title>
<ellipse fill="#fdb462" stroke="#000000" cx="1488" cy="-104" rx="62.5354" ry="18"/>
<text text-anchor="middle" x="1488" y="-99.8" font-family="Times,serif" font-size="14.00" fill="#000000">BatchService</text>
</g>
<!-- BatchService&#45;&gt;BamModule -->
<g id="edge41" class="edge">
<title>BatchService&#45;&gt;BamModule</title>
<path fill="none" stroke="#000000" d="M1488,-122.0267C1488,-142.7672 1488,-174 1488,-174 1488,-174 3498.8904,-174 3498.8904,-174"/>
<polygon fill="#000000" stroke="#000000" points="3498.8905,-177.5001 3508.8904,-174 3498.8904,-170.5001 3498.8905,-177.5001"/>
</g>
<!-- CurriculumService -->
<g id="node35" class="node">
<title>CurriculumService</title>
<ellipse fill="#fdb462" stroke="#000000" cx="1323" cy="-104" rx="84.5266" ry="18"/>
<text text-anchor="middle" x="1323" y="-99.8" font-family="Times,serif" font-size="14.00" fill="#000000">CurriculumService</text>
</g>
<!-- CurriculumService&#45;&gt;BamModule -->
<g id="edge42" class="edge">
<title>CurriculumService&#45;&gt;BamModule</title>
<path fill="none" stroke="#000000" d="M1323,-122.2843C1323,-143.3211 1323,-175 1323,-175 1323,-175 3498.9701,-175 3498.9701,-175"/>
<polygon fill="#000000" stroke="#000000" points="3498.9701,-178.5001 3508.9701,-175 3498.97,-171.5001 3498.9701,-178.5001"/>
</g>
<!-- CalendarService -->
<g id="node36" class="node">
<title>CalendarService</title>
<ellipse fill="#fdb462" stroke="#000000" cx="1146" cy="-104" rx="74.6956" ry="18"/>
<text text-anchor="middle" x="1146" y="-99.8" font-family="Times,serif" font-size="14.00" fill="#000000">CalendarService</text>
</g>
<!-- CalendarService&#45;&gt;BamModule -->
<g id="edge43" class="edge">
<title>CalendarService&#45;&gt;BamModule</title>
<path fill="none" stroke="#000000" d="M1146,-122.0449C1146,-143.6623 1146,-177 1146,-177 1146,-177 3498.9611,-177 3498.9611,-177"/>
<polygon fill="#000000" stroke="#000000" points="3498.9612,-180.5001 3508.9611,-177 3498.9611,-173.5001 3498.9612,-180.5001"/>
</g>
<!-- AddSubtopicService -->
<g id="node37" class="node">
<title>AddSubtopicService</title>
<ellipse fill="#fdb462" stroke="#000000" cx="962" cy="-104" rx="90.9129" ry="18"/>
<text text-anchor="middle" x="962" y="-99.8" font-family="Times,serif" font-size="14.00" fill="#000000">AddSubtopicService</text>
</g>
<!-- AddSubtopicService&#45;&gt;BamModule -->
<g id="edge44" class="edge">
<title>AddSubtopicService&#45;&gt;BamModule</title>
<path fill="none" stroke="#000000" d="M962,-122.2921C962,-144.2057 962,-178 962,-178 962,-178 3498.9392,-178 3498.9392,-178"/>
<polygon fill="#000000" stroke="#000000" points="3498.9393,-181.5001 3508.9392,-178 3498.9392,-174.5001 3498.9393,-181.5001"/>
</g>
<!-- CalendarStatusService -->
<g id="node38" class="node">
<title>CalendarStatusService</title>
<ellipse fill="#fdb462" stroke="#000000" cx="755" cy="-104" rx="98.4082" ry="18"/>
<text text-anchor="middle" x="755" y="-99.8" font-family="Times,serif" font-size="14.00" fill="#000000">CalendarStatusService</text>
</g>
<!-- CalendarStatusService&#45;&gt;BamModule -->
<g id="edge45" class="edge">
<title>CalendarStatusService&#45;&gt;BamModule</title>
<path fill="none" stroke="#000000" d="M755,-122.0109C755,-144.4852 755,-180 755,-180 755,-180 3498.9065,-180 3498.9065,-180"/>
<polygon fill="#000000" stroke="#000000" points="3498.9066,-183.5001 3508.9065,-180 3498.9065,-176.5001 3498.9066,-183.5001"/>
</g>
<!-- SearchTextService -->
<g id="node39" class="node">
<title>SearchTextService</title>
<ellipse fill="#fdb462" stroke="#000000" cx="555" cy="-104" rx="83.9238" ry="18"/>
<text text-anchor="middle" x="555" y="-99.8" font-family="Times,serif" font-size="14.00" fill="#000000">SearchTextService</text>
</g>
<!-- SearchTextService&#45;&gt;BamModule -->
<g id="edge46" class="edge">
<title>SearchTextService&#45;&gt;BamModule</title>
<path fill="none" stroke="#000000" d="M555,-122.2479C555,-145.0179 555,-181 555,-181 555,-181 3498.7684,-181 3498.7684,-181"/>
<polygon fill="#000000" stroke="#000000" points="3498.7684,-184.5001 3508.7684,-181 3498.7684,-177.5001 3498.7684,-184.5001"/>
</g>
<!-- TopicService -->
<g id="node40" class="node">
<title>TopicService</title>
<ellipse fill="#fdb462" stroke="#000000" cx="391" cy="-104" rx="62.5373" ry="18"/>
<text text-anchor="middle" x="391" y="-99.8" font-family="Times,serif" font-size="14.00" fill="#000000">TopicService</text>
</g>
<!-- TopicService&#45;&gt;BamModule -->
<g id="edge47" class="edge">
<title>TopicService&#45;&gt;BamModule</title>
<path fill="none" stroke="#000000" d="M391,-122.3228C391,-145.6602 391,-183 391,-183 391,-183 3498.8164,-183 3498.8164,-183"/>
<polygon fill="#000000" stroke="#000000" points="3498.8164,-186.5001 3508.8164,-183 3498.8163,-179.5001 3498.8164,-186.5001"/>
</g>
<!-- SubtopicService -->
<g id="node41" class="node">
<title>SubtopicService</title>
<ellipse fill="#fdb462" stroke="#000000" cx="236" cy="-104" rx="74.1566" ry="18"/>
<text text-anchor="middle" x="236" y="-99.8" font-family="Times,serif" font-size="14.00" fill="#000000">SubtopicService</text>
</g>
<!-- SubtopicService&#45;&gt;BamModule -->
<g id="edge48" class="edge">
<title>SubtopicService&#45;&gt;BamModule</title>
<path fill="none" stroke="#000000" d="M236,-122.1532C236,-145.7566 236,-184 236,-184 236,-184 3498.8607,-184 3498.8607,-184"/>
<polygon fill="#000000" stroke="#000000" points="3498.8607,-187.5001 3508.8607,-184 3498.8607,-180.5001 3498.8607,-187.5001"/>
</g>
<!-- AlertService -->
<g id="node42" class="node">
<title>AlertService</title>
<ellipse fill="#fdb462" stroke="#000000" cx="84" cy="-104" rx="59.6646" ry="18"/>
<text text-anchor="middle" x="84" y="-99.8" font-family="Times,serif" font-size="14.00" fill="#000000">AlertService</text>
</g>
<!-- AlertService&#45;&gt;BamModule -->
<g id="edge49" class="edge">
<title>AlertService&#45;&gt;BamModule</title>
<path fill="none" stroke="#000000" d="M84,-122.1985C84,-146.3563 84,-186 84,-186 84,-186 3498.7794,-186 3498.7794,-186"/>
<polygon fill="#000000" stroke="#000000" points="3498.7794,-189.5001 3508.7794,-186 3498.7794,-182.5001 3498.7794,-189.5001"/>
</g>
</g>
</svg>
