<?xml version="1.0" encoding="UTF-8" standalone="no"?>
<!DOCTYPE svg PUBLIC "-//W3C//DTD SVG 1.1//EN"
 "http://www.w3.org/Graphics/SVG/1.1/DTD/svg11.dtd">
<!-- Generated by graphviz version 2.40.1 (20161225.0304)
 -->
<!-- Title: dependencies Pages: 1 -->
<svg width="1551pt" height="284pt"
 viewBox="0.00 0.00 1551.00 284.00" xmlns="http://www.w3.org/2000/svg" xmlns:xlink="http://www.w3.org/1999/xlink">
<g id="graph0" class="graph" transform="scale(1 1) rotate(0) translate(4 280)">
<title>dependencies</title>
<polygon fill="#ffffff" stroke="transparent" points="-4,4 -4,-280 1547,-280 1547,4 -4,4"/>
<text text-anchor="start" x="750.5091" y="-42.4" font-family="sans-serif" font-weight="bold" font-size="14.00" fill="#000000">Legend</text>
<polygon fill="#ffffb3" stroke="transparent" points="537.5,-10 537.5,-30 557.5,-30 557.5,-10 537.5,-10"/>
<text text-anchor="start" x="561.129" y="-15.4" font-family="sans-serif" font-size="14.00" fill="#000000"> &#160;Declarations</text>
<polygon fill="#8dd3c7" stroke="transparent" points="650.5,-10 650.5,-30 670.5,-30 670.5,-10 650.5,-10"/>
<text text-anchor="start" x="674.2251" y="-15.4" font-family="sans-serif" font-size="14.00" fill="#000000"> &#160;Module</text>
<polygon fill="#80b1d3" stroke="transparent" points="736.5,-10 736.5,-30 756.5,-30 756.5,-10 736.5,-10"/>
<text text-anchor="start" x="760.2812" y="-15.4" font-family="sans-serif" font-size="14.00" fill="#000000"> &#160;Bootstrap</text>
<polygon fill="#fdb462" stroke="transparent" points="833.5,-10 833.5,-30 853.5,-30 853.5,-10 833.5,-10"/>
<text text-anchor="start" x="857.1732" y="-15.4" font-family="sans-serif" font-size="14.00" fill="#000000"> &#160;Providers</text>
<polygon fill="#fb8072" stroke="transparent" points="929.5,-10 929.5,-30 949.5,-30 949.5,-10 929.5,-10"/>
<text text-anchor="start" x="953.2258" y="-15.4" font-family="sans-serif" font-size="14.00" fill="#000000"> &#160;Exports</text>
<g id="clust1" class="cluster">
<title>cluster_HydraClientModule</title>
<polygon fill="none" stroke="#000000" stroke-dasharray="1,5" points="8,-70 8,-268 1535,-268 1535,-70 8,-70"/>
</g>
<g id="clust2" class="cluster">
<title>cluster_HydraClientModule_declarations</title>
<polygon fill="none" stroke="#000000" points="1371,-78 1371,-130 1527,-130 1527,-78 1371,-78"/>
</g>
<g id="clust5" class="cluster">
<title>cluster_HydraClientModule_exports</title>
<polygon fill="none" stroke="#000000" points="810,-208 810,-260 970,-260 970,-208 810,-208"/>
</g>
<g id="clust7" class="cluster">
<title>cluster_HydraClientModule_providers</title>
<polygon fill="none" stroke="#000000" points="16,-78 16,-130 1363,-130 1363,-78 16,-78"/>
</g>
<!-- ErrorAlertComponent -->
<g id="node1" class="node">
<title>ErrorAlertComponent</title>
<polygon fill="#ffffb3" stroke="#000000" points="1518.6303,-122 1379.3697,-122 1379.3697,-86 1518.6303,-86 1518.6303,-122"/>
<text text-anchor="middle" x="1449" y="-99.8" font-family="Times,serif" font-size="14.00" fill="#000000">ErrorAlertComponent</text>
</g>
<!-- HydraClientModule -->
<g id="node2" class="node">
<title>HydraClientModule</title>
<polygon fill="#8dd3c7" stroke="#000000" points="954.2548,-187 951.2548,-191 930.2548,-191 927.2548,-187 825.7452,-187 825.7452,-151 954.2548,-151 954.2548,-187"/>
<text text-anchor="middle" x="890" y="-164.8" font-family="Times,serif" font-size="14.00" fill="#000000">HydraClientModule</text>
</g>
<!-- ErrorAlertComponent&#45;&gt;HydraClientModule -->
<g id="edge1" class="edge">
<title>ErrorAlertComponent&#45;&gt;HydraClientModule</title>
<path fill="none" stroke="#000000" d="M1449,-122.2921C1449,-144.2057 1449,-178 1449,-178 1449,-178 964.3972,-178 964.3972,-178"/>
<polygon fill="#000000" stroke="#000000" points="964.3973,-174.5001 954.3972,-178 964.3972,-181.5001 964.3973,-174.5001"/>
</g>
<!-- ErrorAlertComponent  -->
<g id="node3" class="node">
<title>ErrorAlertComponent </title>
<polygon fill="#fb8072" stroke="#000000" points="961.6299,-252 818.3701,-252 818.3701,-216 961.6299,-216 961.6299,-252"/>
<text text-anchor="middle" x="890" y="-229.8" font-family="Times,serif" font-size="14.00" fill="#000000">ErrorAlertComponent </text>
</g>
<!-- HydraClientModule&#45;&gt;ErrorAlertComponent  -->
<g id="edge2" class="edge">
<title>HydraClientModule&#45;&gt;ErrorAlertComponent </title>
<path fill="none" stroke="#000000" stroke-dasharray="5,2" d="M890,-187.1061C890,-187.1061 890,-205.991 890,-205.991"/>
<polygon fill="#000000" stroke="#000000" points="886.5001,-205.9909 890,-215.991 893.5001,-205.991 886.5001,-205.9909"/>
</g>
<!-- HydraBatchService -->
<g id="node4" class="node">
<title>HydraBatchService</title>
<ellipse fill="#fdb462" stroke="#000000" cx="1268" cy="-104" rx="86.7952" ry="18"/>
<text text-anchor="middle" x="1268" y="-99.8" font-family="Times,serif" font-size="14.00" fill="#000000">HydraBatchService</text>
</g>
<!-- HydraBatchService&#45;&gt;HydraClientModule -->
<g id="edge3" class="edge">
<title>HydraBatchService&#45;&gt;HydraClientModule</title>
<path fill="none" stroke="#000000" d="M1268,-122.1061C1268,-141.3391 1268,-169 1268,-169 1268,-169 964.551,-169 964.551,-169"/>
<polygon fill="#000000" stroke="#000000" points="964.5511,-165.5001 954.551,-169 964.551,-172.5001 964.5511,-165.5001"/>
</g>
<!-- TrainerService -->
<g id="node5" class="node">
<title>TrainerService</title>
<ellipse fill="#fdb462" stroke="#000000" cx="1095" cy="-104" rx="68.3131" ry="18"/>
<text text-anchor="middle" x="1095" y="-99.8" font-family="Times,serif" font-size="14.00" fill="#000000">TrainerService</text>
</g>
<!-- TrainerService&#45;&gt;HydraClientModule -->
<g id="edge4" class="edge">
<title>TrainerService&#45;&gt;HydraClientModule</title>
<path fill="none" stroke="#000000" d="M1095,-122.027C1095,-138.3976 1095,-160 1095,-160 1095,-160 964.3008,-160 964.3008,-160"/>
<polygon fill="#000000" stroke="#000000" points="964.3009,-156.5001 954.3008,-160 964.3008,-163.5001 964.3009,-156.5001"/>
</g>
<!-- UrlService -->
<g id="node6" class="node">
<title>UrlService</title>
<ellipse fill="#fdb462" stroke="#000000" cx="956" cy="-104" rx="52.7238" ry="18"/>
<text text-anchor="middle" x="956" y="-99.8" font-family="Times,serif" font-size="14.00" fill="#000000">UrlService</text>
</g>
<!-- UrlService&#45;&gt;HydraClientModule -->
<g id="edge5" class="edge">
<title>UrlService&#45;&gt;HydraClientModule</title>
<path fill="none" stroke="#000000" d="M920.218,-117.468C920.218,-117.468 920.218,-140.8642 920.218,-140.8642"/>
<polygon fill="#000000" stroke="#000000" points="916.7181,-140.8641 920.218,-150.8642 923.7181,-140.8642 916.7181,-140.8641"/>
</g>
<!-- UrlService&#45;&gt;HydraClientModule -->
<g id="edge8" class="edge">
<title>UrlService&#45;&gt;HydraClientModule</title>
<path fill="none" stroke="#000000" d="M937.2976,-121.078C937.2976,-121.078 937.2976,-140.8993 937.2976,-140.8993"/>
<polygon fill="#000000" stroke="#000000" points="933.7977,-140.8992 937.2976,-150.8993 940.7977,-140.8993 933.7977,-140.8992"/>
</g>
<!-- AlertService -->
<g id="node7" class="node">
<title>AlertService</title>
<ellipse fill="#fdb462" stroke="#000000" cx="825" cy="-104" rx="59.6646" ry="18"/>
<text text-anchor="middle" x="825" y="-99.8" font-family="Times,serif" font-size="14.00" fill="#000000">AlertService</text>
</g>
<!-- AlertService&#45;&gt;HydraClientModule -->
<g id="edge6" class="edge">
<title>AlertService&#45;&gt;HydraClientModule</title>
<path fill="none" stroke="#000000" d="M855.2274,-119.7347C855.2274,-119.7347 855.2274,-140.6451 855.2274,-140.6451"/>
<polygon fill="#000000" stroke="#000000" points="851.7275,-140.645 855.2274,-150.6451 858.7275,-140.6451 851.7275,-140.645"/>
</g>
<!-- BatchService -->
<g id="node8" class="node">
<title>BatchService</title>
<ellipse fill="#fdb462" stroke="#000000" cx="685" cy="-104" rx="62.5354" ry="18"/>
<text text-anchor="middle" x="685" y="-99.8" font-family="Times,serif" font-size="14.00" fill="#000000">BatchService</text>
</g>
<!-- BatchService&#45;&gt;HydraClientModule -->
<g id="edge7" class="edge">
<title>BatchService&#45;&gt;HydraClientModule</title>
<path fill="none" stroke="#000000" d="M685,-122.0091C685,-138.0494 685,-159 685,-159 685,-159 815.6992,-159 815.6992,-159"/>
<polygon fill="#000000" stroke="#000000" points="815.6992,-162.5001 825.6992,-159 815.6991,-155.5001 815.6992,-162.5001"/>
</g>
<!-- GambitSkillService -->
<g id="node9" class="node">
<title>GambitSkillService</title>
<ellipse fill="#fdb462" stroke="#000000" cx="517" cy="-104" rx="87.4118" ry="18"/>
<text text-anchor="middle" x="517" y="-99.8" font-family="Times,serif" font-size="14.00" fill="#000000">GambitSkillService</text>
</g>
<!-- GambitSkillService&#45;&gt;HydraClientModule -->
<g id="edge9" class="edge">
<title>GambitSkillService&#45;&gt;HydraClientModule</title>
<path fill="none" stroke="#000000" d="M517,-122.2667C517,-140.5552 517,-166 517,-166 517,-166 815.4542,-166 815.4542,-166"/>
<polygon fill="#000000" stroke="#000000" points="815.4542,-169.5001 825.4542,-166 815.4542,-162.5001 815.4542,-169.5001"/>
</g>
<!-- GambitSkillTypeService -->
<g id="node10" class="node">
<title>GambitSkillTypeService</title>
<ellipse fill="#fdb462" stroke="#000000" cx="305" cy="-104" rx="107.0975" ry="18"/>
<text text-anchor="middle" x="305" y="-99.8" font-family="Times,serif" font-size="14.00" fill="#000000">GambitSkillTypeService</text>
</g>
<!-- GambitSkillTypeService&#45;&gt;HydraClientModule -->
<g id="edge10" class="edge">
<title>GambitSkillTypeService&#45;&gt;HydraClientModule</title>
<path fill="none" stroke="#000000" d="M305,-122.1289C305,-142.5724 305,-173 305,-173 305,-173 815.7213,-173 815.7213,-173"/>
<polygon fill="#000000" stroke="#000000" points="815.7214,-176.5001 825.7213,-173 815.7213,-169.5001 815.7214,-176.5001"/>
</g>
<!-- HydraInterceptor -->
<g id="node11" class="node">
<title>HydraInterceptor</title>
<ellipse fill="#fdb462" stroke="#000000" cx="102" cy="-104" rx="77.5472" ry="18"/>
<text text-anchor="middle" x="102" y="-99.8" font-family="Times,serif" font-size="14.00" fill="#000000">HydraInterceptor</text>
</g>
<!-- HydraInterceptor&#45;&gt;HydraClientModule -->
<g id="edge11" class="edge">
<title>HydraInterceptor&#45;&gt;HydraClientModule</title>
<path fill="none" stroke="#000000" d="M102,-122.0109C102,-144.4852 102,-180 102,-180 102,-180 815.5147,-180 815.5147,-180"/>
<polygon fill="#000000" stroke="#000000" points="815.5147,-183.5001 825.5147,-180 815.5146,-176.5001 815.5147,-183.5001"/>
</g>
</g>
</svg>
