<?xml version="1.0" encoding="UTF-8" standalone="no"?>
<!DOCTYPE svg PUBLIC "-//W3C//DTD SVG 1.1//EN"
 "http://www.w3.org/Graphics/SVG/1.1/DTD/svg11.dtd">
<!-- Generated by graphviz version 2.40.1 (20161225.0304)
 -->
<!-- Title: dependencies Pages: 1 -->
<svg width="983pt" height="284pt"
 viewBox="0.00 0.00 983.00 284.00" xmlns="http://www.w3.org/2000/svg" xmlns:xlink="http://www.w3.org/1999/xlink">
<g id="graph0" class="graph" transform="scale(1 1) rotate(0) translate(4 280)">
<title>dependencies</title>
<polygon fill="#ffffff" stroke="transparent" points="-4,4 -4,-280 979,-280 979,4 -4,4"/>
<text text-anchor="start" x="466.5091" y="-42.4" font-family="sans-serif" font-weight="bold" font-size="14.00" fill="#000000">Legend</text>
<polygon fill="#ffffb3" stroke="transparent" points="253.5,-10 253.5,-30 273.5,-30 273.5,-10 253.5,-10"/>
<text text-anchor="start" x="277.129" y="-15.4" font-family="sans-serif" font-size="14.00" fill="#000000"> &#160;Declarations</text>
<polygon fill="#8dd3c7" stroke="transparent" points="366.5,-10 366.5,-30 386.5,-30 386.5,-10 366.5,-10"/>
<text text-anchor="start" x="390.2251" y="-15.4" font-family="sans-serif" font-size="14.00" fill="#000000"> &#160;Module</text>
<polygon fill="#80b1d3" stroke="transparent" points="452.5,-10 452.5,-30 472.5,-30 472.5,-10 452.5,-10"/>
<text text-anchor="start" x="476.2812" y="-15.4" font-family="sans-serif" font-size="14.00" fill="#000000"> &#160;Bootstrap</text>
<polygon fill="#fdb462" stroke="transparent" points="549.5,-10 549.5,-30 569.5,-30 569.5,-10 549.5,-10"/>
<text text-anchor="start" x="573.1732" y="-15.4" font-family="sans-serif" font-size="14.00" fill="#000000"> &#160;Providers</text>
<polygon fill="#fb8072" stroke="transparent" points="645.5,-10 645.5,-30 665.5,-30 665.5,-10 645.5,-10"/>
<text text-anchor="start" x="669.2258" y="-15.4" font-family="sans-serif" font-size="14.00" fill="#000000"> &#160;Exports</text>
<g id="clust1" class="cluster">
<title>cluster_HydraClientModule</title>
<polygon fill="none" stroke="#000000" stroke-dasharray="1,5" points="8,-70 8,-268 967,-268 967,-70 8,-70"/>
</g>
<g id="clust2" class="cluster">
<title>cluster_HydraClientModule_declarations</title>
<polygon fill="none" stroke="#000000" points="803,-78 803,-130 959,-130 959,-78 803,-78"/>
</g>
<g id="clust5" class="cluster">
<title>cluster_HydraClientModule_exports</title>
<polygon fill="none" stroke="#000000" points="308,-208 308,-260 468,-260 468,-208 308,-208"/>
</g>
<g id="clust7" class="cluster">
<title>cluster_HydraClientModule_providers</title>
<polygon fill="none" stroke="#000000" points="16,-78 16,-130 795,-130 795,-78 16,-78"/>
</g>
<!-- ErrorAlertComponent -->
<g id="node1" class="node">
<title>ErrorAlertComponent</title>
<polygon fill="#ffffb3" stroke="#000000" points="950.6303,-122 811.3697,-122 811.3697,-86 950.6303,-86 950.6303,-122"/>
<text text-anchor="middle" x="881" y="-99.8" font-family="Times,serif" font-size="14.00" fill="#000000">ErrorAlertComponent</text>
</g>
<!-- HydraClientModule -->
<g id="node2" class="node">
<title>HydraClientModule</title>
<polygon fill="#8dd3c7" stroke="#000000" points="452.2548,-187 449.2548,-191 428.2548,-191 425.2548,-187 323.7452,-187 323.7452,-151 452.2548,-151 452.2548,-187"/>
<text text-anchor="middle" x="388" y="-164.8" font-family="Times,serif" font-size="14.00" fill="#000000">HydraClientModule</text>
</g>
<!-- ErrorAlertComponent&#45;&gt;HydraClientModule -->
<g id="edge1" class="edge">
<title>ErrorAlertComponent&#45;&gt;HydraClientModule</title>
<path fill="none" stroke="#000000" d="M881,-122.2843C881,-143.3211 881,-175 881,-175 881,-175 462.4511,-175 462.4511,-175"/>
<polygon fill="#000000" stroke="#000000" points="462.4512,-171.5001 452.4511,-175 462.4511,-178.5001 462.4512,-171.5001"/>
</g>
<!-- ErrorAlertComponent  -->
<g id="node3" class="node">
<title>ErrorAlertComponent </title>
<polygon fill="#fb8072" stroke="#000000" points="459.6299,-252 316.3701,-252 316.3701,-216 459.6299,-216 459.6299,-252"/>
<text text-anchor="middle" x="388" y="-229.8" font-family="Times,serif" font-size="14.00" fill="#000000">ErrorAlertComponent </text>
</g>
<!-- HydraClientModule&#45;&gt;ErrorAlertComponent  -->
<g id="edge2" class="edge">
<title>HydraClientModule&#45;&gt;ErrorAlertComponent </title>
<path fill="none" stroke="#000000" stroke-dasharray="5,2" d="M388,-187.1061C388,-187.1061 388,-205.991 388,-205.991"/>
<polygon fill="#000000" stroke="#000000" points="384.5001,-205.9909 388,-215.991 391.5001,-205.991 384.5001,-205.9909"/>
</g>
<!-- HydraBatchService -->
<g id="node4" class="node">
<title>HydraBatchService</title>
<ellipse fill="#fdb462" stroke="#000000" cx="700" cy="-104" rx="86.7952" ry="18"/>
<text text-anchor="middle" x="700" y="-99.8" font-family="Times,serif" font-size="14.00" fill="#000000">HydraBatchService</text>
</g>
<!-- HydraBatchService&#45;&gt;HydraClientModule -->
<g id="edge3" class="edge">
<title>HydraBatchService&#45;&gt;HydraClientModule</title>
<path fill="none" stroke="#000000" d="M700,-122.0225C700,-139.3734 700,-163 700,-163 700,-163 462.2683,-163 462.2683,-163"/>
<polygon fill="#000000" stroke="#000000" points="462.2683,-159.5001 452.2683,-163 462.2683,-166.5001 462.2683,-159.5001"/>
</g>
<!-- TrainerService -->
<g id="node5" class="node">
<title>TrainerService</title>
<ellipse fill="#fdb462" stroke="#000000" cx="527" cy="-104" rx="68.3131" ry="18"/>
<text text-anchor="middle" x="527" y="-99.8" font-family="Times,serif" font-size="14.00" fill="#000000">TrainerService</text>
</g>
<!-- TrainerService&#45;&gt;HydraClientModule -->
<g id="edge4" class="edge">
<title>TrainerService&#45;&gt;HydraClientModule</title>
<path fill="none" stroke="#000000" d="M458.4799,-104C451.3342,-104 446.6195,-104 446.6195,-104 446.6195,-104 446.6195,-140.8939 446.6195,-140.8939"/>
<polygon fill="#000000" stroke="#000000" points="443.1196,-140.8938 446.6195,-150.8939 450.1196,-140.8939 443.1196,-140.8938"/>
</g>
<!-- UrlService -->
<g id="node6" class="node">
<title>UrlService</title>
<ellipse fill="#fdb462" stroke="#000000" cx="388" cy="-104" rx="52.7238" ry="18"/>
<text text-anchor="middle" x="388" y="-99.8" font-family="Times,serif" font-size="14.00" fill="#000000">UrlService</text>
</g>
<!-- UrlService&#45;&gt;HydraClientModule -->
<g id="edge5" class="edge">
<title>UrlService&#45;&gt;HydraClientModule</title>
<path fill="none" stroke="#000000" d="M370.3794,-121.078C370.3794,-121.078 370.3794,-140.8993 370.3794,-140.8993"/>
<polygon fill="#000000" stroke="#000000" points="366.8795,-140.8992 370.3794,-150.8993 373.8795,-140.8993 366.8795,-140.8992"/>
</g>
<!-- UrlService&#45;&gt;HydraClientModule -->
<g id="edge8" class="edge">
<title>UrlService&#45;&gt;HydraClientModule</title>
<path fill="none" stroke="#000000" d="M405.6206,-121.078C405.6206,-121.078 405.6206,-140.8993 405.6206,-140.8993"/>
<polygon fill="#000000" stroke="#000000" points="402.1207,-140.8992 405.6206,-150.8993 409.1207,-140.8993 402.1207,-140.8992"/>
</g>
<!-- AlertService -->
<g id="node7" class="node">
<title>AlertService</title>
<ellipse fill="#fdb462" stroke="#000000" cx="257" cy="-104" rx="59.6646" ry="18"/>
<text text-anchor="middle" x="257" y="-99.8" font-family="Times,serif" font-size="14.00" fill="#000000">AlertService</text>
</g>
<!-- AlertService&#45;&gt;HydraClientModule -->
<g id="edge6" class="edge">
<title>AlertService&#45;&gt;HydraClientModule</title>
<path fill="none" stroke="#000000" d="M317.1021,-104C324.4227,-104 329.3805,-104 329.3805,-104 329.3805,-104 329.3805,-140.8939 329.3805,-140.8939"/>
<polygon fill="#000000" stroke="#000000" points="325.8806,-140.8938 329.3805,-150.8939 332.8806,-140.8939 325.8806,-140.8938"/>
</g>
<!-- HydraInterceptor -->
<g id="node8" class="node">
<title>HydraInterceptor</title>
<ellipse fill="#fdb462" stroke="#000000" cx="102" cy="-104" rx="77.5472" ry="18"/>
<text text-anchor="middle" x="102" y="-99.8" font-family="Times,serif" font-size="14.00" fill="#000000">HydraInterceptor</text>
</g>
<!-- HydraInterceptor&#45;&gt;HydraClientModule -->
<g id="edge7" class="edge">
<title>HydraInterceptor&#45;&gt;HydraClientModule</title>
<path fill="none" stroke="#000000" d="M102,-122.1061C102,-141.3391 102,-169 102,-169 102,-169 313.4594,-169 313.4594,-169"/>
<polygon fill="#000000" stroke="#000000" points="313.4594,-172.5001 323.4594,-169 313.4594,-165.5001 313.4594,-172.5001"/>
</g>
</g>
</svg>
