<?xml version="1.0" encoding="UTF-8" standalone="no"?>
<!DOCTYPE svg PUBLIC "-//W3C//DTD SVG 1.1//EN"
 "http://www.w3.org/Graphics/SVG/1.1/DTD/svg11.dtd">
<!-- Generated by graphviz version 2.40.1 (20161225.0304)
 -->
<!-- Title: dependencies Pages: 1 -->
<svg width="517pt" height="211pt"
 viewBox="0.00 0.00 517.00 211.00" xmlns="http://www.w3.org/2000/svg" xmlns:xlink="http://www.w3.org/1999/xlink">
<g id="graph0" class="graph" transform="scale(1 1) rotate(0) translate(4 207)">
<title>dependencies</title>
<polygon fill="#ffffff" stroke="transparent" points="-4,4 -4,-207 513,-207 513,4 -4,4"/>
<text text-anchor="start" x="233.5091" y="-42.4" font-family="sans-serif" font-weight="bold" font-size="14.00" fill="#000000">Legend</text>
<polygon fill="#ffffb3" stroke="transparent" points="20.5,-10 20.5,-30 40.5,-30 40.5,-10 20.5,-10"/>
<text text-anchor="start" x="44.129" y="-15.4" font-family="sans-serif" font-size="14.00" fill="#000000"> &#160;Declarations</text>
<polygon fill="#8dd3c7" stroke="transparent" points="133.5,-10 133.5,-30 153.5,-30 153.5,-10 133.5,-10"/>
<text text-anchor="start" x="157.2251" y="-15.4" font-family="sans-serif" font-size="14.00" fill="#000000"> &#160;Module</text>
<polygon fill="#80b1d3" stroke="transparent" points="219.5,-10 219.5,-30 239.5,-30 239.5,-10 219.5,-10"/>
<text text-anchor="start" x="243.2812" y="-15.4" font-family="sans-serif" font-size="14.00" fill="#000000"> &#160;Bootstrap</text>
<polygon fill="#fdb462" stroke="transparent" points="316.5,-10 316.5,-30 336.5,-30 336.5,-10 316.5,-10"/>
<text text-anchor="start" x="340.1732" y="-15.4" font-family="sans-serif" font-size="14.00" fill="#000000"> &#160;Providers</text>
<polygon fill="#fb8072" stroke="transparent" points="412.5,-10 412.5,-30 432.5,-30 432.5,-10 412.5,-10"/>
<text text-anchor="start" x="436.2258" y="-15.4" font-family="sans-serif" font-size="14.00" fill="#000000"> &#160;Exports</text>
<g id="clust1" class="cluster">
<title>cluster_HydraClientModule</title>
<polygon fill="none" stroke="#000000" stroke-dasharray="1,5" points="8,-70 8,-195 501,-195 501,-70 8,-70"/>
</g>
<g id="clust6" class="cluster">
<title>cluster_HydraClientModule_providers</title>
<polygon fill="none" stroke="#000000" points="16,-78 16,-130 493,-130 493,-78 16,-78"/>
</g>
<!-- HydraSkillService -->
<g id="node1" class="node">
<title>HydraSkillService</title>
<ellipse fill="#fdb462" stroke="#000000" cx="403" cy="-104" rx="82.2391" ry="18"/>
<text text-anchor="middle" x="403" y="-99.8" font-family="Times,serif" font-size="14.00" fill="#000000">HydraSkillService</text>
</g>
<!-- HydraClientModule -->
<g id="node4" class="node">
<title>HydraClientModule</title>
<polygon fill="#8dd3c7" stroke="#000000" points="289.2548,-187 286.2548,-191 265.2548,-191 262.2548,-187 160.7452,-187 160.7452,-151 289.2548,-151 289.2548,-187"/>
<text text-anchor="middle" x="225" y="-164.8" font-family="Times,serif" font-size="14.00" fill="#000000">HydraClientModule</text>
</g>
<!-- HydraSkillService&#45;&gt;HydraClientModule -->
<g id="edge1" class="edge">
<title>HydraSkillService&#45;&gt;HydraClientModule</title>
<path fill="none" stroke="#000000" d="M403,-122.1061C403,-141.3391 403,-169 403,-169 403,-169 299.2621,-169 299.2621,-169"/>
<polygon fill="#000000" stroke="#000000" points="299.2621,-165.5001 289.2621,-169 299.262,-172.5001 299.2621,-165.5001"/>
</g>
<!-- HydraInterceptor -->
<g id="node2" class="node">
<title>HydraInterceptor</title>
<ellipse fill="#fdb462" stroke="#000000" cx="225" cy="-104" rx="77.5472" ry="18"/>
<text text-anchor="middle" x="225" y="-99.8" font-family="Times,serif" font-size="14.00" fill="#000000">HydraInterceptor</text>
</g>
<!-- HydraInterceptor&#45;&gt;HydraClientModule -->
<g id="edge2" class="edge">
<title>HydraInterceptor&#45;&gt;HydraClientModule</title>
<path fill="none" stroke="#000000" d="M225,-122.1061C225,-122.1061 225,-140.991 225,-140.991"/>
<polygon fill="#000000" stroke="#000000" points="221.5001,-140.9909 225,-150.991 228.5001,-140.991 221.5001,-140.9909"/>
</g>
<!-- UrlService -->
<g id="node3" class="node">
<title>UrlService</title>
<ellipse fill="#fdb462" stroke="#000000" cx="77" cy="-104" rx="52.7238" ry="18"/>
<text text-anchor="middle" x="77" y="-99.8" font-family="Times,serif" font-size="14.00" fill="#000000">UrlService</text>
</g>
<!-- UrlService&#45;&gt;HydraClientModule -->
<g id="edge3" class="edge">
<title>UrlService&#45;&gt;HydraClientModule</title>
<path fill="none" stroke="#000000" d="M77,-122.1061C77,-141.3391 77,-169 77,-169 77,-169 150.5156,-169 150.5156,-169"/>
<polygon fill="#000000" stroke="#000000" points="150.5156,-172.5001 160.5156,-169 150.5155,-165.5001 150.5156,-172.5001"/>
</g>
</g>
</svg>
