<?xml version="1.0" encoding="UTF-8" standalone="no"?>
<!DOCTYPE svg PUBLIC "-//W3C//DTD SVG 1.1//EN"
 "http://www.w3.org/Graphics/SVG/1.1/DTD/svg11.dtd">
<!-- Generated by graphviz version 2.40.1 (20161225.0304)
 -->
<!-- Title: dependencies Pages: 1 -->
<svg width="1165pt" height="284pt"
 viewBox="0.00 0.00 1165.00 284.00" xmlns="http://www.w3.org/2000/svg" xmlns:xlink="http://www.w3.org/1999/xlink">
<g id="graph0" class="graph" transform="scale(1 1) rotate(0) translate(4 280)">
<title>dependencies</title>
<polygon fill="#ffffff" stroke="transparent" points="-4,4 -4,-280 1161,-280 1161,4 -4,4"/>
<text text-anchor="start" x="557.5091" y="-42.4" font-family="sans-serif" font-weight="bold" font-size="14.00" fill="#000000">Legend</text>
<polygon fill="#ffffb3" stroke="transparent" points="344.5,-10 344.5,-30 364.5,-30 364.5,-10 344.5,-10"/>
<text text-anchor="start" x="368.129" y="-15.4" font-family="sans-serif" font-size="14.00" fill="#000000"> &#160;Declarations</text>
<polygon fill="#8dd3c7" stroke="transparent" points="457.5,-10 457.5,-30 477.5,-30 477.5,-10 457.5,-10"/>
<text text-anchor="start" x="481.2251" y="-15.4" font-family="sans-serif" font-size="14.00" fill="#000000"> &#160;Module</text>
<polygon fill="#80b1d3" stroke="transparent" points="543.5,-10 543.5,-30 563.5,-30 563.5,-10 543.5,-10"/>
<text text-anchor="start" x="567.2812" y="-15.4" font-family="sans-serif" font-size="14.00" fill="#000000"> &#160;Bootstrap</text>
<polygon fill="#fdb462" stroke="transparent" points="640.5,-10 640.5,-30 660.5,-30 660.5,-10 640.5,-10"/>
<text text-anchor="start" x="664.1732" y="-15.4" font-family="sans-serif" font-size="14.00" fill="#000000"> &#160;Providers</text>
<polygon fill="#fb8072" stroke="transparent" points="736.5,-10 736.5,-30 756.5,-30 756.5,-10 736.5,-10"/>
<text text-anchor="start" x="760.2258" y="-15.4" font-family="sans-serif" font-size="14.00" fill="#000000"> &#160;Exports</text>
<g id="clust1" class="cluster">
<title>cluster_AppModule</title>
<polygon fill="none" stroke="#000000" stroke-dasharray="1,5" points="8,-70 8,-268 1149,-268 1149,-70 8,-70"/>
</g>
<g id="clust2" class="cluster">
<title>cluster_AppModule_declarations</title>
<polygon fill="none" stroke="#000000" points="597,-78 597,-130 1141,-130 1141,-78 597,-78"/>
</g>
<g id="clust7" class="cluster">
<title>cluster_AppModule_imports</title>
<polygon fill="none" stroke="#000000" points="344,-78 344,-130 589,-130 589,-78 344,-78"/>
</g>
<g id="clust9" class="cluster">
<title>cluster_AppModule_bootstrap</title>
<polygon fill="none" stroke="#000000" points="538,-208 538,-260 662,-260 662,-208 538,-208"/>
</g>
<g id="clust10" class="cluster">
<title>cluster_AppModule_providers</title>
<polygon fill="none" stroke="#000000" points="16,-78 16,-130 336,-130 336,-78 16,-78"/>
</g>
<!-- AppComponent -->
<g id="node1" class="node">
<title>AppComponent</title>
<polygon fill="#ffffb3" stroke="#000000" points="1132.9399,-122 1027.0601,-122 1027.0601,-86 1132.9399,-86 1132.9399,-122"/>
<text text-anchor="middle" x="1080" y="-99.8" font-family="Times,serif" font-size="14.00" fill="#000000">AppComponent</text>
</g>
<!-- AppModule -->
<g id="node5" class="node">
<title>AppModule</title>
<polygon fill="#8dd3c7" stroke="#000000" points="641.6571,-187 638.6571,-191 617.6571,-191 614.6571,-187 558.3429,-187 558.3429,-151 641.6571,-151 641.6571,-187"/>
<text text-anchor="middle" x="600" y="-164.8" font-family="Times,serif" font-size="14.00" fill="#000000">AppModule</text>
</g>
<!-- AppComponent&#45;&gt;AppModule -->
<g id="edge1" class="edge">
<title>AppComponent&#45;&gt;AppModule</title>
<path fill="none" stroke="#000000" d="M1080,-122.2921C1080,-144.2057 1080,-178 1080,-178 1080,-178 651.7572,-178 651.7572,-178"/>
<polygon fill="#000000" stroke="#000000" points="651.7572,-174.5001 641.7572,-178 651.7571,-181.5001 651.7572,-174.5001"/>
</g>
<!-- LoginComponent -->
<g id="node2" class="node">
<title>LoginComponent</title>
<polygon fill="#ffffb3" stroke="#000000" points="1009.2758,-122 894.7242,-122 894.7242,-86 1009.2758,-86 1009.2758,-122"/>
<text text-anchor="middle" x="952" y="-99.8" font-family="Times,serif" font-size="14.00" fill="#000000">LoginComponent</text>
</g>
<!-- LoginComponent&#45;&gt;AppModule -->
<g id="edge2" class="edge">
<title>LoginComponent&#45;&gt;AppModule</title>
<path fill="none" stroke="#000000" d="M952,-122.1061C952,-141.3391 952,-169 952,-169 952,-169 651.7613,-169 651.7613,-169"/>
<polygon fill="#000000" stroke="#000000" points="651.7613,-165.5001 641.7613,-169 651.7613,-172.5001 651.7613,-165.5001"/>
</g>
<!-- DashboardComponent -->
<g id="node3" class="node">
<title>DashboardComponent</title>
<polygon fill="#ffffb3" stroke="#000000" points="876.9734,-122 735.0266,-122 735.0266,-86 876.9734,-86 876.9734,-122"/>
<text text-anchor="middle" x="806" y="-99.8" font-family="Times,serif" font-size="14.00" fill="#000000">DashboardComponent</text>
</g>
<!-- DashboardComponent&#45;&gt;AppModule -->
<g id="edge3" class="edge">
<title>DashboardComponent&#45;&gt;AppModule</title>
<path fill="none" stroke="#000000" d="M806,-122.027C806,-138.3976 806,-160 806,-160 806,-160 651.6872,-160 651.6872,-160"/>
<polygon fill="#000000" stroke="#000000" points="651.6872,-156.5001 641.6872,-160 651.6871,-163.5001 651.6872,-156.5001"/>
</g>
<!-- JanusComponent -->
<g id="node4" class="node">
<title>JanusComponent</title>
<polygon fill="#ffffb3" stroke="#000000" points="717.437,-122 604.563,-122 604.563,-86 717.437,-86 717.437,-122"/>
<text text-anchor="middle" x="661" y="-99.8" font-family="Times,serif" font-size="14.00" fill="#000000">JanusComponent</text>
</g>
<!-- JanusComponent&#45;&gt;AppModule -->
<g id="edge4" class="edge">
<title>JanusComponent&#45;&gt;AppModule</title>
<path fill="none" stroke="#000000" d="M623.305,-122.1061C623.305,-122.1061 623.305,-140.991 623.305,-140.991"/>
<polygon fill="#000000" stroke="#000000" points="619.8051,-140.9909 623.305,-150.991 626.8051,-140.991 619.8051,-140.9909"/>
</g>
<!-- AppComponent  -->
<g id="node8" class="node">
<title>AppComponent </title>
<polygon fill="#80b1d3" stroke="#000000" points="654.439,-252 545.561,-252 545.561,-216 654.439,-216 654.439,-252"/>
<text text-anchor="middle" x="600" y="-229.8" font-family="Times,serif" font-size="14.00" fill="#000000">AppComponent </text>
</g>
<!-- AppModule&#45;&gt;AppComponent  -->
<g id="edge7" class="edge">
<title>AppModule&#45;&gt;AppComponent </title>
<path fill="none" stroke="#000000" stroke-dasharray="1,5" d="M600,-187.1061C600,-187.1061 600,-205.991 600,-205.991"/>
<polygon fill="#000000" stroke="#000000" points="596.5001,-205.9909 600,-215.991 603.5001,-205.991 596.5001,-205.9909"/>
</g>
<!-- NavModule -->
<g id="node6" class="node">
<title>NavModule</title>
<polygon fill="#8dd3c7" stroke="#000000" points="581.3711,-122 578.3711,-126 557.3711,-126 554.3711,-122 498.6289,-122 498.6289,-86 581.3711,-86 581.3711,-122"/>
<text text-anchor="middle" x="540" y="-99.8" font-family="Times,serif" font-size="14.00" fill="#000000">NavModule</text>
</g>
<!-- NavModule&#45;&gt;AppModule -->
<g id="edge5" class="edge">
<title>NavModule&#45;&gt;AppModule</title>
<path fill="none" stroke="#000000" d="M569.8037,-122.1061C569.8037,-122.1061 569.8037,-140.991 569.8037,-140.991"/>
<polygon fill="#000000" stroke="#000000" points="566.3037,-140.9909 569.8037,-150.991 573.3037,-140.991 566.3037,-140.9909"/>
</g>
<!-- HydraClientModule -->
<g id="node7" class="node">
<title>HydraClientModule</title>
<polygon fill="#8dd3c7" stroke="#000000" points="480.2548,-122 477.2548,-126 456.2548,-126 453.2548,-122 351.7452,-122 351.7452,-86 480.2548,-86 480.2548,-122"/>
<text text-anchor="middle" x="416" y="-99.8" font-family="Times,serif" font-size="14.00" fill="#000000">HydraClientModule</text>
</g>
<!-- HydraClientModule&#45;&gt;AppModule -->
<g id="edge6" class="edge">
<title>HydraClientModule&#45;&gt;AppModule</title>
<path fill="none" stroke="#000000" d="M416,-122.027C416,-138.3976 416,-160 416,-160 416,-160 548.2476,-160 548.2476,-160"/>
<polygon fill="#000000" stroke="#000000" points="548.2476,-163.5001 558.2476,-160 548.2475,-156.5001 548.2476,-163.5001"/>
</g>
<!-- ChuckNorrisService -->
<g id="node9" class="node">
<title>ChuckNorrisService</title>
<ellipse fill="#fdb462" stroke="#000000" cx="238" cy="-104" rx="89.746" ry="18"/>
<text text-anchor="middle" x="238" y="-99.8" font-family="Times,serif" font-size="14.00" fill="#000000">ChuckNorrisService</text>
</g>
<!-- ChuckNorrisService&#45;&gt;AppModule -->
<g id="edge8" class="edge">
<title>ChuckNorrisService&#45;&gt;AppModule</title>
<path fill="none" stroke="#000000" d="M238,-122.1061C238,-141.3391 238,-169 238,-169 238,-169 548.1204,-169 548.1204,-169"/>
<polygon fill="#000000" stroke="#000000" points="548.1204,-172.5001 558.1204,-169 548.1203,-165.5001 548.1204,-172.5001"/>
</g>
<!-- RoleGuard -->
<g id="node10" class="node">
<title>RoleGuard</title>
<ellipse fill="#fdb462" stroke="#000000" cx="77" cy="-104" rx="53.3109" ry="18"/>
<text text-anchor="middle" x="77" y="-99.8" font-family="Times,serif" font-size="14.00" fill="#000000">RoleGuard</text>
</g>
<!-- RoleGuard&#45;&gt;AppModule -->
<g id="edge9" class="edge">
<title>RoleGuard&#45;&gt;AppModule</title>
<path fill="none" stroke="#000000" d="M77,-122.2921C77,-144.2057 77,-178 77,-178 77,-178 548.0848,-178 548.0848,-178"/>
<polygon fill="#000000" stroke="#000000" points="548.0848,-181.5001 558.0848,-178 548.0848,-174.5001 548.0848,-181.5001"/>
</g>
</g>
</svg>
