<?xml version="1.0" encoding="UTF-8" standalone="no"?>
<!DOCTYPE svg PUBLIC "-//W3C//DTD SVG 1.1//EN"
 "http://www.w3.org/Graphics/SVG/1.1/DTD/svg11.dtd">
<!-- Generated by graphviz version 2.40.1 (20161225.0304)
 -->
<!-- Title: dependencies Pages: 1 -->
<svg width="1387pt" height="284pt"
 viewBox="0.00 0.00 1387.00 284.00" xmlns="http://www.w3.org/2000/svg" xmlns:xlink="http://www.w3.org/1999/xlink">
<g id="graph0" class="graph" transform="scale(1 1) rotate(0) translate(4 280)">
<title>dependencies</title>
<polygon fill="#ffffff" stroke="transparent" points="-4,4 -4,-280 1383,-280 1383,4 -4,4"/>
<text text-anchor="start" x="668.5091" y="-42.4" font-family="sans-serif" font-weight="bold" font-size="14.00" fill="#000000">Legend</text>
<polygon fill="#ffffb3" stroke="transparent" points="455.5,-10 455.5,-30 475.5,-30 475.5,-10 455.5,-10"/>
<text text-anchor="start" x="479.129" y="-15.4" font-family="sans-serif" font-size="14.00" fill="#000000"> &#160;Declarations</text>
<polygon fill="#8dd3c7" stroke="transparent" points="568.5,-10 568.5,-30 588.5,-30 588.5,-10 568.5,-10"/>
<text text-anchor="start" x="592.2251" y="-15.4" font-family="sans-serif" font-size="14.00" fill="#000000"> &#160;Module</text>
<polygon fill="#80b1d3" stroke="transparent" points="654.5,-10 654.5,-30 674.5,-30 674.5,-10 654.5,-10"/>
<text text-anchor="start" x="678.2812" y="-15.4" font-family="sans-serif" font-size="14.00" fill="#000000"> &#160;Bootstrap</text>
<polygon fill="#fdb462" stroke="transparent" points="751.5,-10 751.5,-30 771.5,-30 771.5,-10 751.5,-10"/>
<text text-anchor="start" x="775.1732" y="-15.4" font-family="sans-serif" font-size="14.00" fill="#000000"> &#160;Providers</text>
<polygon fill="#fb8072" stroke="transparent" points="847.5,-10 847.5,-30 867.5,-30 867.5,-10 847.5,-10"/>
<text text-anchor="start" x="871.2258" y="-15.4" font-family="sans-serif" font-size="14.00" fill="#000000"> &#160;Exports</text>
<g id="clust1" class="cluster">
<title>cluster_AppModule</title>
<polygon fill="none" stroke="#000000" stroke-dasharray="1,5" points="8,-70 8,-268 1371,-268 1371,-70 8,-70"/>
</g>
<g id="clust2" class="cluster">
<title>cluster_AppModule_declarations</title>
<polygon fill="none" stroke="#000000" points="819,-78 819,-130 1363,-130 1363,-78 819,-78"/>
</g>
<g id="clust7" class="cluster">
<title>cluster_AppModule_imports</title>
<polygon fill="none" stroke="#000000" points="566,-78 566,-130 811,-130 811,-78 566,-78"/>
</g>
<g id="clust9" class="cluster">
<title>cluster_AppModule_bootstrap</title>
<polygon fill="none" stroke="#000000" points="700,-208 700,-260 824,-260 824,-208 700,-208"/>
</g>
<g id="clust10" class="cluster">
<title>cluster_AppModule_providers</title>
<polygon fill="none" stroke="#000000" points="16,-78 16,-130 558,-130 558,-78 16,-78"/>
</g>
<!-- AppComponent -->
<g id="node1" class="node">
<title>AppComponent</title>
<polygon fill="#ffffb3" stroke="#000000" points="1354.9399,-122 1249.0601,-122 1249.0601,-86 1354.9399,-86 1354.9399,-122"/>
<text text-anchor="middle" x="1302" y="-99.8" font-family="Times,serif" font-size="14.00" fill="#000000">AppComponent</text>
</g>
<!-- AppModule -->
<g id="node5" class="node">
<title>AppModule</title>
<polygon fill="#8dd3c7" stroke="#000000" points="803.6571,-187 800.6571,-191 779.6571,-191 776.6571,-187 720.3429,-187 720.3429,-151 803.6571,-151 803.6571,-187"/>
<text text-anchor="middle" x="762" y="-164.8" font-family="Times,serif" font-size="14.00" fill="#000000">AppModule</text>
</g>
<!-- AppComponent&#45;&gt;AppModule -->
<g id="edge1" class="edge">
<title>AppComponent&#45;&gt;AppModule</title>
<path fill="none" stroke="#000000" d="M1302,-122.0109C1302,-144.4852 1302,-180 1302,-180 1302,-180 813.9236,-180 813.9236,-180"/>
<polygon fill="#000000" stroke="#000000" points="813.9236,-176.5001 803.9236,-180 813.9235,-183.5001 813.9236,-176.5001"/>
</g>
<!-- LoginComponent -->
<g id="node2" class="node">
<title>LoginComponent</title>
<polygon fill="#ffffb3" stroke="#000000" points="1231.2758,-122 1116.7242,-122 1116.7242,-86 1231.2758,-86 1231.2758,-122"/>
<text text-anchor="middle" x="1174" y="-99.8" font-family="Times,serif" font-size="14.00" fill="#000000">LoginComponent</text>
</g>
<!-- LoginComponent&#45;&gt;AppModule -->
<g id="edge2" class="edge">
<title>LoginComponent&#45;&gt;AppModule</title>
<path fill="none" stroke="#000000" d="M1174,-122.1289C1174,-142.5724 1174,-173 1174,-173 1174,-173 813.7721,-173 813.7721,-173"/>
<polygon fill="#000000" stroke="#000000" points="813.7721,-169.5001 803.7721,-173 813.772,-176.5001 813.7721,-169.5001"/>
</g>
<!-- DashboardComponent -->
<g id="node3" class="node">
<title>DashboardComponent</title>
<polygon fill="#ffffb3" stroke="#000000" points="1098.9734,-122 957.0266,-122 957.0266,-86 1098.9734,-86 1098.9734,-122"/>
<text text-anchor="middle" x="1028" y="-99.8" font-family="Times,serif" font-size="14.00" fill="#000000">DashboardComponent</text>
</g>
<!-- DashboardComponent&#45;&gt;AppModule -->
<g id="edge3" class="edge">
<title>DashboardComponent&#45;&gt;AppModule</title>
<path fill="none" stroke="#000000" d="M1028,-122.2667C1028,-140.5552 1028,-166 1028,-166 1028,-166 813.8551,-166 813.8551,-166"/>
<polygon fill="#000000" stroke="#000000" points="813.8552,-162.5001 803.8551,-166 813.8551,-169.5001 813.8552,-162.5001"/>
</g>
<!-- JanusComponent -->
<g id="node4" class="node">
<title>JanusComponent</title>
<polygon fill="#ffffb3" stroke="#000000" points="939.437,-122 826.563,-122 826.563,-86 939.437,-86 939.437,-122"/>
<text text-anchor="middle" x="883" y="-99.8" font-family="Times,serif" font-size="14.00" fill="#000000">JanusComponent</text>
</g>
<!-- JanusComponent&#45;&gt;AppModule -->
<g id="edge4" class="edge">
<title>JanusComponent&#45;&gt;AppModule</title>
<path fill="none" stroke="#000000" d="M883,-122.0091C883,-138.0494 883,-159 883,-159 883,-159 813.9803,-159 813.9803,-159"/>
<polygon fill="#000000" stroke="#000000" points="813.9804,-155.5001 803.9803,-159 813.9803,-162.5001 813.9804,-155.5001"/>
</g>
<!-- AppComponent  -->
<g id="node8" class="node">
<title>AppComponent </title>
<polygon fill="#80b1d3" stroke="#000000" points="816.439,-252 707.561,-252 707.561,-216 816.439,-216 816.439,-252"/>
<text text-anchor="middle" x="762" y="-229.8" font-family="Times,serif" font-size="14.00" fill="#000000">AppComponent </text>
</g>
<!-- AppModule&#45;&gt;AppComponent  -->
<g id="edge7" class="edge">
<title>AppModule&#45;&gt;AppComponent </title>
<path fill="none" stroke="#000000" stroke-dasharray="1,5" d="M762,-187.1061C762,-187.1061 762,-205.991 762,-205.991"/>
<polygon fill="#000000" stroke="#000000" points="758.5001,-205.9909 762,-215.991 765.5001,-205.991 758.5001,-205.9909"/>
</g>
<!-- NavModule -->
<g id="node6" class="node">
<title>NavModule</title>
<polygon fill="#8dd3c7" stroke="#000000" points="803.3711,-122 800.3711,-126 779.3711,-126 776.3711,-122 720.6289,-122 720.6289,-86 803.3711,-86 803.3711,-122"/>
<text text-anchor="middle" x="762" y="-99.8" font-family="Times,serif" font-size="14.00" fill="#000000">NavModule</text>
</g>
<!-- NavModule&#45;&gt;AppModule -->
<g id="edge5" class="edge">
<title>NavModule&#45;&gt;AppModule</title>
<path fill="none" stroke="#000000" d="M762,-122.1061C762,-122.1061 762,-140.991 762,-140.991"/>
<polygon fill="#000000" stroke="#000000" points="758.5001,-140.9909 762,-150.991 765.5001,-140.991 758.5001,-140.9909"/>
</g>
<!-- HydraClientModule -->
<g id="node7" class="node">
<title>HydraClientModule</title>
<polygon fill="#8dd3c7" stroke="#000000" points="702.2548,-122 699.2548,-126 678.2548,-126 675.2548,-122 573.7452,-122 573.7452,-86 702.2548,-86 702.2548,-122"/>
<text text-anchor="middle" x="638" y="-99.8" font-family="Times,serif" font-size="14.00" fill="#000000">HydraClientModule</text>
</g>
<!-- HydraClientModule&#45;&gt;AppModule -->
<g id="edge6" class="edge">
<title>HydraClientModule&#45;&gt;AppModule</title>
<path fill="none" stroke="#000000" d="M638,-122.0091C638,-138.0494 638,-159 638,-159 638,-159 710.0193,-159 710.0193,-159"/>
<polygon fill="#000000" stroke="#000000" points="710.0193,-162.5001 720.0193,-159 710.0192,-155.5001 710.0193,-162.5001"/>
</g>
<!-- ChuckNorrisService -->
<g id="node9" class="node">
<title>ChuckNorrisService</title>
<ellipse fill="#fdb462" stroke="#000000" cx="460" cy="-104" rx="89.746" ry="18"/>
<text text-anchor="middle" x="460" y="-99.8" font-family="Times,serif" font-size="14.00" fill="#000000">ChuckNorrisService</text>
</g>
<!-- ChuckNorrisService&#45;&gt;AppModule -->
<g id="edge8" class="edge">
<title>ChuckNorrisService&#45;&gt;AppModule</title>
<path fill="none" stroke="#000000" d="M460,-122.2667C460,-140.5552 460,-166 460,-166 460,-166 710.3253,-166 710.3253,-166"/>
<polygon fill="#000000" stroke="#000000" points="710.3253,-169.5001 720.3253,-166 710.3252,-162.5001 710.3253,-169.5001"/>
</g>
<!-- RoleGuard -->
<g id="node10" class="node">
<title>RoleGuard</title>
<ellipse fill="#fdb462" stroke="#000000" cx="299" cy="-104" rx="53.3109" ry="18"/>
<text text-anchor="middle" x="299" y="-99.8" font-family="Times,serif" font-size="14.00" fill="#000000">RoleGuard</text>
</g>
<!-- RoleGuard&#45;&gt;AppModule -->
<g id="edge9" class="edge">
<title>RoleGuard&#45;&gt;AppModule</title>
<path fill="none" stroke="#000000" d="M299,-122.1289C299,-142.5724 299,-173 299,-173 299,-173 710.0952,-173 710.0952,-173"/>
<polygon fill="#000000" stroke="#000000" points="710.0953,-176.5001 720.0952,-173 710.0952,-169.5001 710.0953,-176.5001"/>
</g>
<!-- HydraBatchUtilService -->
<g id="node11" class="node">
<title>HydraBatchUtilService</title>
<ellipse fill="#fdb462" stroke="#000000" cx="126" cy="-104" rx="101.8399" ry="18"/>
<text text-anchor="middle" x="126" y="-99.8" font-family="Times,serif" font-size="14.00" fill="#000000">HydraBatchUtilService</text>
</g>
<!-- HydraBatchUtilService&#45;&gt;AppModule -->
<g id="edge10" class="edge">
<title>HydraBatchUtilService&#45;&gt;AppModule</title>
<path fill="none" stroke="#000000" d="M126,-122.0109C126,-144.4852 126,-180 126,-180 126,-180 710.2703,-180 710.2703,-180"/>
<polygon fill="#000000" stroke="#000000" points="710.2703,-183.5001 720.2703,-180 710.2702,-176.5001 710.2703,-183.5001"/>
</g>
</g>
</svg>
