<?xml version="1.0" encoding="UTF-8" standalone="no"?>
<!DOCTYPE svg PUBLIC "-//W3C//DTD SVG 1.1//EN"
 "http://www.w3.org/Graphics/SVG/1.1/DTD/svg11.dtd">
<!-- Generated by graphviz version 2.40.1 (20161225.0304)
 -->
<!-- Title: dependencies Pages: 1 -->
<svg width="1012pt" height="284pt"
 viewBox="0.00 0.00 1012.00 284.00" xmlns="http://www.w3.org/2000/svg" xmlns:xlink="http://www.w3.org/1999/xlink">
<g id="graph0" class="graph" transform="scale(1 1) rotate(0) translate(4 280)">
<title>dependencies</title>
<polygon fill="#ffffff" stroke="transparent" points="-4,4 -4,-280 1008,-280 1008,4 -4,4"/>
<text text-anchor="start" x="481.0091" y="-42.4" font-family="sans-serif" font-weight="bold" font-size="14.00" fill="#000000">Legend</text>
<polygon fill="#ffffb3" stroke="transparent" points="268,-10 268,-30 288,-30 288,-10 268,-10"/>
<text text-anchor="start" x="291.629" y="-15.4" font-family="sans-serif" font-size="14.00" fill="#000000"> &#160;Declarations</text>
<polygon fill="#8dd3c7" stroke="transparent" points="381,-10 381,-30 401,-30 401,-10 381,-10"/>
<text text-anchor="start" x="404.7251" y="-15.4" font-family="sans-serif" font-size="14.00" fill="#000000"> &#160;Module</text>
<polygon fill="#80b1d3" stroke="transparent" points="467,-10 467,-30 487,-30 487,-10 467,-10"/>
<text text-anchor="start" x="490.7812" y="-15.4" font-family="sans-serif" font-size="14.00" fill="#000000"> &#160;Bootstrap</text>
<polygon fill="#fdb462" stroke="transparent" points="564,-10 564,-30 584,-30 584,-10 564,-10"/>
<text text-anchor="start" x="587.6732" y="-15.4" font-family="sans-serif" font-size="14.00" fill="#000000"> &#160;Providers</text>
<polygon fill="#fb8072" stroke="transparent" points="660,-10 660,-30 680,-30 680,-10 660,-10"/>
<text text-anchor="start" x="683.7258" y="-15.4" font-family="sans-serif" font-size="14.00" fill="#000000"> &#160;Exports</text>
<g id="clust1" class="cluster">
<title>cluster_NavModule</title>
<polygon fill="none" stroke="#000000" stroke-dasharray="1,5" points="8,-70 8,-268 996,-268 996,-70 8,-70"/>
</g>
<g id="clust2" class="cluster">
<title>cluster_NavModule_declarations</title>
<polygon fill="none" stroke="#000000" points="166,-78 166,-130 988,-130 988,-78 166,-78"/>
</g>
<g id="clust9" class="cluster">
<title>cluster_NavModule_exports</title>
<polygon fill="none" stroke="#000000" points="447,-208 447,-260 571,-260 571,-208 447,-208"/>
</g>
<g id="clust11" class="cluster">
<title>cluster_NavModule_providers</title>
<polygon fill="none" stroke="#000000" points="16,-78 16,-130 158,-130 158,-78 16,-78"/>
</g>
<!-- NavComponent -->
<g id="node1" class="node">
<title>NavComponent</title>
<polygon fill="#ffffb3" stroke="#000000" points="980.1542,-122 875.8458,-122 875.8458,-86 980.1542,-86 980.1542,-122"/>
<text text-anchor="middle" x="928" y="-99.8" font-family="Times,serif" font-size="14.00" fill="#000000">NavComponent</text>
</g>
<!-- NavModule -->
<g id="node6" class="node">
<title>NavModule</title>
<polygon fill="#8dd3c7" stroke="#000000" points="550.3711,-187 547.3711,-191 526.3711,-191 523.3711,-187 467.6289,-187 467.6289,-151 550.3711,-151 550.3711,-187"/>
<text text-anchor="middle" x="509" y="-164.8" font-family="Times,serif" font-size="14.00" fill="#000000">NavModule</text>
</g>
<!-- NavComponent&#45;&gt;NavModule -->
<g id="edge1" class="edge">
<title>NavComponent&#45;&gt;NavModule</title>
<path fill="none" stroke="#000000" d="M928,-122.2843C928,-143.3211 928,-175 928,-175 928,-175 560.7072,-175 560.7072,-175"/>
<polygon fill="#000000" stroke="#000000" points="560.7072,-171.5001 550.7072,-175 560.7071,-178.5001 560.7072,-171.5001"/>
</g>
<!-- CaliberNavComponent -->
<g id="node2" class="node">
<title>CaliberNavComponent</title>
<polygon fill="#ffffb3" stroke="#000000" points="857.8613,-122 712.1387,-122 712.1387,-86 857.8613,-86 857.8613,-122"/>
<text text-anchor="middle" x="785" y="-99.8" font-family="Times,serif" font-size="14.00" fill="#000000">CaliberNavComponent</text>
</g>
<!-- CaliberNavComponent&#45;&gt;NavModule -->
<g id="edge2" class="edge">
<title>CaliberNavComponent&#45;&gt;NavModule</title>
<path fill="none" stroke="#000000" d="M785,-122.0225C785,-139.3734 785,-163 785,-163 785,-163 560.6188,-163 560.6188,-163"/>
<polygon fill="#000000" stroke="#000000" points="560.6189,-159.5001 550.6188,-163 560.6188,-166.5001 560.6189,-159.5001"/>
</g>
<!-- AssignForceNavComponent -->
<g id="node3" class="node">
<title>AssignForceNavComponent</title>
<polygon fill="#ffffb3" stroke="#000000" points="693.9129,-122 518.0871,-122 518.0871,-86 693.9129,-86 693.9129,-122"/>
<text text-anchor="middle" x="606" y="-99.8" font-family="Times,serif" font-size="14.00" fill="#000000">AssignForceNavComponent</text>
</g>
<!-- AssignForceNavComponent&#45;&gt;NavModule -->
<g id="edge3" class="edge">
<title>AssignForceNavComponent&#45;&gt;NavModule</title>
<path fill="none" stroke="#000000" d="M534.3647,-122.1061C534.3647,-122.1061 534.3647,-140.991 534.3647,-140.991"/>
<polygon fill="#000000" stroke="#000000" points="530.8647,-140.9909 534.3647,-150.991 537.8647,-140.991 530.8647,-140.9909"/>
</g>
<!-- TracknForceNavComponent -->
<g id="node4" class="node">
<title>TracknForceNavComponent</title>
<polygon fill="#ffffb3" stroke="#000000" points="500.1685,-122 323.8315,-122 323.8315,-86 500.1685,-86 500.1685,-122"/>
<text text-anchor="middle" x="412" y="-99.8" font-family="Times,serif" font-size="14.00" fill="#000000">TracknForceNavComponent</text>
</g>
<!-- TracknForceNavComponent&#45;&gt;NavModule -->
<g id="edge4" class="edge">
<title>TracknForceNavComponent&#45;&gt;NavModule</title>
<path fill="none" stroke="#000000" d="M483.8244,-122.1061C483.8244,-122.1061 483.8244,-140.991 483.8244,-140.991"/>
<polygon fill="#000000" stroke="#000000" points="480.3244,-140.9909 483.8244,-150.991 487.3244,-140.991 480.3244,-140.9909"/>
</g>
<!-- BamNavComponent -->
<g id="node5" class="node">
<title>BamNavComponent</title>
<polygon fill="#ffffb3" stroke="#000000" points="305.5954,-122 174.4046,-122 174.4046,-86 305.5954,-86 305.5954,-122"/>
<text text-anchor="middle" x="240" y="-99.8" font-family="Times,serif" font-size="14.00" fill="#000000">BamNavComponent</text>
</g>
<!-- BamNavComponent&#45;&gt;NavModule -->
<g id="edge5" class="edge">
<title>BamNavComponent&#45;&gt;NavModule</title>
<path fill="none" stroke="#000000" d="M240,-122.0225C240,-139.3734 240,-163 240,-163 240,-163 457.5583,-163 457.5583,-163"/>
<polygon fill="#000000" stroke="#000000" points="457.5583,-166.5001 467.5583,-163 457.5582,-159.5001 457.5583,-166.5001"/>
</g>
<!-- NavComponent  -->
<g id="node7" class="node">
<title>NavComponent </title>
<polygon fill="#fb8072" stroke="#000000" points="563.1537,-252 454.8463,-252 454.8463,-216 563.1537,-216 563.1537,-252"/>
<text text-anchor="middle" x="509" y="-229.8" font-family="Times,serif" font-size="14.00" fill="#000000">NavComponent </text>
</g>
<!-- NavModule&#45;&gt;NavComponent  -->
<g id="edge6" class="edge">
<title>NavModule&#45;&gt;NavComponent </title>
<path fill="none" stroke="#000000" stroke-dasharray="5,2" d="M509,-187.1061C509,-187.1061 509,-205.991 509,-205.991"/>
<polygon fill="#000000" stroke="#000000" points="505.5001,-205.9909 509,-215.991 512.5001,-205.991 505.5001,-205.9909"/>
</g>
<!-- BatchService -->
<g id="node8" class="node">
<title>BatchService</title>
<ellipse fill="#fdb462" stroke="#000000" cx="87" cy="-104" rx="62.5354" ry="18"/>
<text text-anchor="middle" x="87" y="-99.8" font-family="Times,serif" font-size="14.00" fill="#000000">BatchService</text>
</g>
<!-- BatchService&#45;&gt;NavModule -->
<g id="edge7" class="edge">
<title>BatchService&#45;&gt;NavModule</title>
<path fill="none" stroke="#000000" d="M87,-122.2843C87,-143.3211 87,-175 87,-175 87,-175 457.3821,-175 457.3821,-175"/>
<polygon fill="#000000" stroke="#000000" points="457.3821,-178.5001 467.3821,-175 457.3821,-171.5001 457.3821,-178.5001"/>
</g>
</g>
</svg>
