<?xml version="1.0" encoding="UTF-8" standalone="no"?>
<!DOCTYPE svg PUBLIC "-//W3C//DTD SVG 1.1//EN"
 "http://www.w3.org/Graphics/SVG/1.1/DTD/svg11.dtd">
<!-- Generated by graphviz version 2.40.1 (20161225.0304)
 -->
<!-- Title: dependencies Pages: 1 -->
<svg width="862pt" height="284pt"
 viewBox="0.00 0.00 862.00 284.00" xmlns="http://www.w3.org/2000/svg" xmlns:xlink="http://www.w3.org/1999/xlink">
<g id="graph0" class="graph" transform="scale(1 1) rotate(0) translate(4 280)">
<title>dependencies</title>
<polygon fill="#ffffff" stroke="transparent" points="-4,4 -4,-280 858,-280 858,4 -4,4"/>
<text text-anchor="start" x="406.0091" y="-42.4" font-family="sans-serif" font-weight="bold" font-size="14.00" fill="#000000">Legend</text>
<polygon fill="#ffffb3" stroke="transparent" points="193,-10 193,-30 213,-30 213,-10 193,-10"/>
<text text-anchor="start" x="216.629" y="-15.4" font-family="sans-serif" font-size="14.00" fill="#000000"> &#160;Declarations</text>
<polygon fill="#8dd3c7" stroke="transparent" points="306,-10 306,-30 326,-30 326,-10 306,-10"/>
<text text-anchor="start" x="329.7251" y="-15.4" font-family="sans-serif" font-size="14.00" fill="#000000"> &#160;Module</text>
<polygon fill="#80b1d3" stroke="transparent" points="392,-10 392,-30 412,-30 412,-10 392,-10"/>
<text text-anchor="start" x="415.7812" y="-15.4" font-family="sans-serif" font-size="14.00" fill="#000000"> &#160;Bootstrap</text>
<polygon fill="#fdb462" stroke="transparent" points="489,-10 489,-30 509,-30 509,-10 489,-10"/>
<text text-anchor="start" x="512.6732" y="-15.4" font-family="sans-serif" font-size="14.00" fill="#000000"> &#160;Providers</text>
<polygon fill="#fb8072" stroke="transparent" points="585,-10 585,-30 605,-30 605,-10 585,-10"/>
<text text-anchor="start" x="608.7258" y="-15.4" font-family="sans-serif" font-size="14.00" fill="#000000"> &#160;Exports</text>
<g id="clust1" class="cluster">
<title>cluster_NavModule</title>
<polygon fill="none" stroke="#000000" stroke-dasharray="1,5" points="8,-70 8,-268 846,-268 846,-70 8,-70"/>
</g>
<g id="clust2" class="cluster">
<title>cluster_NavModule_declarations</title>
<polygon fill="none" stroke="#000000" points="16,-78 16,-130 838,-130 838,-78 16,-78"/>
</g>
<g id="clust9" class="cluster">
<title>cluster_NavModule_exports</title>
<polygon fill="none" stroke="#000000" points="394,-208 394,-260 518,-260 518,-208 394,-208"/>
</g>
<!-- NavComponent -->
<g id="node1" class="node">
<title>NavComponent</title>
<polygon fill="#ffffb3" stroke="#000000" points="830.1542,-122 725.8458,-122 725.8458,-86 830.1542,-86 830.1542,-122"/>
<text text-anchor="middle" x="778" y="-99.8" font-family="Times,serif" font-size="14.00" fill="#000000">NavComponent</text>
</g>
<!-- NavModule -->
<g id="node6" class="node">
<title>NavModule</title>
<polygon fill="#8dd3c7" stroke="#000000" points="497.3711,-187 494.3711,-191 473.3711,-191 470.3711,-187 414.6289,-187 414.6289,-151 497.3711,-151 497.3711,-187"/>
<text text-anchor="middle" x="456" y="-164.8" font-family="Times,serif" font-size="14.00" fill="#000000">NavModule</text>
</g>
<!-- NavComponent&#45;&gt;NavModule -->
<g id="edge1" class="edge">
<title>NavComponent&#45;&gt;NavModule</title>
<path fill="none" stroke="#000000" d="M778,-122.2843C778,-143.3211 778,-175 778,-175 778,-175 507.4367,-175 507.4367,-175"/>
<polygon fill="#000000" stroke="#000000" points="507.4367,-171.5001 497.4367,-175 507.4366,-178.5001 507.4367,-171.5001"/>
</g>
<!-- CaliberNavComponent -->
<g id="node2" class="node">
<title>CaliberNavComponent</title>
<polygon fill="#ffffb3" stroke="#000000" points="707.8613,-122 562.1387,-122 562.1387,-86 707.8613,-86 707.8613,-122"/>
<text text-anchor="middle" x="635" y="-99.8" font-family="Times,serif" font-size="14.00" fill="#000000">CaliberNavComponent</text>
</g>
<!-- CaliberNavComponent&#45;&gt;NavModule -->
<g id="edge2" class="edge">
<title>CaliberNavComponent&#45;&gt;NavModule</title>
<path fill="none" stroke="#000000" d="M635,-122.0225C635,-139.3734 635,-163 635,-163 635,-163 507.5161,-163 507.5161,-163"/>
<polygon fill="#000000" stroke="#000000" points="507.5161,-159.5001 497.5161,-163 507.5161,-166.5001 507.5161,-159.5001"/>
</g>
<!-- AssignForceNavComponent -->
<g id="node3" class="node">
<title>AssignForceNavComponent</title>
<polygon fill="#ffffb3" stroke="#000000" points="543.9129,-122 368.0871,-122 368.0871,-86 543.9129,-86 543.9129,-122"/>
<text text-anchor="middle" x="456" y="-99.8" font-family="Times,serif" font-size="14.00" fill="#000000">AssignForceNavComponent</text>
</g>
<!-- AssignForceNavComponent&#45;&gt;NavModule -->
<g id="edge3" class="edge">
<title>AssignForceNavComponent&#45;&gt;NavModule</title>
<path fill="none" stroke="#000000" d="M456,-122.1061C456,-122.1061 456,-140.991 456,-140.991"/>
<polygon fill="#000000" stroke="#000000" points="452.5001,-140.9909 456,-150.991 459.5001,-140.991 452.5001,-140.9909"/>
</g>
<!-- TracknForceNavComponent -->
<g id="node4" class="node">
<title>TracknForceNavComponent</title>
<polygon fill="#ffffb3" stroke="#000000" points="350.1685,-122 173.8315,-122 173.8315,-86 350.1685,-86 350.1685,-122"/>
<text text-anchor="middle" x="262" y="-99.8" font-family="Times,serif" font-size="14.00" fill="#000000">TracknForceNavComponent</text>
</g>
<!-- TracknForceNavComponent&#45;&gt;NavModule -->
<g id="edge4" class="edge">
<title>TracknForceNavComponent&#45;&gt;NavModule</title>
<path fill="none" stroke="#000000" d="M262,-122.0225C262,-139.3734 262,-163 262,-163 262,-163 404.3821,-163 404.3821,-163"/>
<polygon fill="#000000" stroke="#000000" points="404.3822,-166.5001 414.3821,-163 404.3821,-159.5001 404.3822,-166.5001"/>
</g>
<!-- BamNavComponent -->
<g id="node5" class="node">
<title>BamNavComponent</title>
<polygon fill="#ffffb3" stroke="#000000" points="155.5954,-122 24.4046,-122 24.4046,-86 155.5954,-86 155.5954,-122"/>
<text text-anchor="middle" x="90" y="-99.8" font-family="Times,serif" font-size="14.00" fill="#000000">BamNavComponent</text>
</g>
<!-- BamNavComponent&#45;&gt;NavModule -->
<g id="edge5" class="edge">
<title>BamNavComponent&#45;&gt;NavModule</title>
<path fill="none" stroke="#000000" d="M90,-122.2843C90,-143.3211 90,-175 90,-175 90,-175 404.3715,-175 404.3715,-175"/>
<polygon fill="#000000" stroke="#000000" points="404.3715,-178.5001 414.3715,-175 404.3714,-171.5001 404.3715,-178.5001"/>
</g>
<!-- NavComponent  -->
<g id="node7" class="node">
<title>NavComponent </title>
<polygon fill="#fb8072" stroke="#000000" points="510.1537,-252 401.8463,-252 401.8463,-216 510.1537,-216 510.1537,-252"/>
<text text-anchor="middle" x="456" y="-229.8" font-family="Times,serif" font-size="14.00" fill="#000000">NavComponent </text>
</g>
<!-- NavModule&#45;&gt;NavComponent  -->
<g id="edge6" class="edge">
<title>NavModule&#45;&gt;NavComponent </title>
<path fill="none" stroke="#000000" stroke-dasharray="5,2" d="M456,-187.1061C456,-187.1061 456,-205.991 456,-205.991"/>
<polygon fill="#000000" stroke="#000000" points="452.5001,-205.9909 456,-215.991 459.5001,-205.991 452.5001,-205.9909"/>
</g>
</g>
</svg>
