<?xml version="1.0" encoding="UTF-8" standalone="no"?>
<!DOCTYPE svg PUBLIC "-//W3C//DTD SVG 1.1//EN"
 "http://www.w3.org/Graphics/SVG/1.1/DTD/svg11.dtd">
<!-- Generated by graphviz version 2.40.1 (20161225.0304)
 -->
<!-- Title: dependencies Pages: 1 -->
<svg width="4770pt" height="284pt"
 viewBox="0.00 0.00 4770.00 284.00" xmlns="http://www.w3.org/2000/svg" xmlns:xlink="http://www.w3.org/1999/xlink">
<g id="graph0" class="graph" transform="scale(1 1) rotate(0) translate(4 280)">
<title>dependencies</title>
<polygon fill="#ffffff" stroke="transparent" points="-4,4 -4,-280 4766,-280 4766,4 -4,4"/>
<text text-anchor="start" x="2360.0091" y="-42.4" font-family="sans-serif" font-weight="bold" font-size="14.00" fill="#000000">Legend</text>
<polygon fill="#ffffb3" stroke="transparent" points="2147,-10 2147,-30 2167,-30 2167,-10 2147,-10"/>
<text text-anchor="start" x="2170.629" y="-15.4" font-family="sans-serif" font-size="14.00" fill="#000000"> &#160;Declarations</text>
<polygon fill="#8dd3c7" stroke="transparent" points="2260,-10 2260,-30 2280,-30 2280,-10 2260,-10"/>
<text text-anchor="start" x="2283.7251" y="-15.4" font-family="sans-serif" font-size="14.00" fill="#000000"> &#160;Module</text>
<polygon fill="#80b1d3" stroke="transparent" points="2346,-10 2346,-30 2366,-30 2366,-10 2346,-10"/>
<text text-anchor="start" x="2369.7812" y="-15.4" font-family="sans-serif" font-size="14.00" fill="#000000"> &#160;Bootstrap</text>
<polygon fill="#fdb462" stroke="transparent" points="2443,-10 2443,-30 2463,-30 2463,-10 2443,-10"/>
<text text-anchor="start" x="2466.6732" y="-15.4" font-family="sans-serif" font-size="14.00" fill="#000000"> &#160;Providers</text>
<polygon fill="#fb8072" stroke="transparent" points="2539,-10 2539,-30 2559,-30 2559,-10 2539,-10"/>
<text text-anchor="start" x="2562.7258" y="-15.4" font-family="sans-serif" font-size="14.00" fill="#000000"> &#160;Exports</text>
<g id="clust1" class="cluster">
<title>cluster_TrackForceModule</title>
<polygon fill="none" stroke="#000000" stroke-dasharray="1,5" points="8,-70 8,-268 4754,-268 4754,-70 8,-70"/>
</g>
<g id="clust2" class="cluster">
<title>cluster_TrackForceModule_declarations</title>
<polygon fill="none" stroke="#000000" points="1760,-78 1760,-130 4746,-130 4746,-78 1760,-78"/>
</g>
<g id="clust24" class="cluster">
<title>cluster_TrackForceModule_bootstrap</title>
<polygon fill="none" stroke="#000000" points="2359,-208 2359,-260 2525,-260 2525,-208 2359,-208"/>
</g>
<g id="clust25" class="cluster">
<title>cluster_TrackForceModule_providers</title>
<polygon fill="none" stroke="#000000" points="16,-78 16,-130 1752,-130 1752,-78 16,-78"/>
</g>
<!-- TrackForceComponent -->
<g id="node1" class="node">
<title>TrackForceComponent</title>
<polygon fill="#ffffb3" stroke="#000000" points="4737.8473,-122 4592.1527,-122 4592.1527,-86 4737.8473,-86 4737.8473,-122"/>
<text text-anchor="middle" x="4665" y="-99.8" font-family="Times,serif" font-size="14.00" fill="#000000">TrackForceComponent</text>
</g>
<!-- TrackForceModule -->
<g id="node20" class="node">
<title>TrackForceModule</title>
<polygon fill="#8dd3c7" stroke="#000000" points="2504.0646,-187 2501.0646,-191 2480.0646,-191 2477.0646,-187 2379.9354,-187 2379.9354,-151 2504.0646,-151 2504.0646,-187"/>
<text text-anchor="middle" x="2442" y="-164.8" font-family="Times,serif" font-size="14.00" fill="#000000">TrackForceModule</text>
</g>
<!-- TrackForceComponent&#45;&gt;TrackForceModule -->
<g id="edge1" class="edge">
<title>TrackForceComponent&#45;&gt;TrackForceModule</title>
<path fill="none" stroke="#000000" d="M4665,-122.3802C4665,-146.2785 4665,-185 4665,-185 4665,-185 2514.0683,-185 2514.0683,-185"/>
<polygon fill="#000000" stroke="#000000" points="2514.0683,-181.5001 2504.0683,-185 2514.0682,-188.5001 2514.0683,-181.5001"/>
</g>
<!-- NavbarComponent -->
<g id="node2" class="node">
<title>NavbarComponent</title>
<polygon fill="#ffffb3" stroke="#000000" points="4574.0297,-122 4451.9703,-122 4451.9703,-86 4574.0297,-86 4574.0297,-122"/>
<text text-anchor="middle" x="4513" y="-99.8" font-family="Times,serif" font-size="14.00" fill="#000000">NavbarComponent</text>
</g>
<!-- NavbarComponent&#45;&gt;TrackForceModule -->
<g id="edge2" class="edge">
<title>NavbarComponent&#45;&gt;TrackForceModule</title>
<path fill="none" stroke="#000000" d="M4513,-122.3228C4513,-145.6602 4513,-183 4513,-183 4513,-183 2514.2627,-183 2514.2627,-183"/>
<polygon fill="#000000" stroke="#000000" points="2514.2628,-179.5001 2504.2627,-183 2514.2627,-186.5001 2514.2628,-179.5001"/>
</g>
<!-- HomeComponent -->
<g id="node3" class="node">
<title>HomeComponent</title>
<polygon fill="#ffffb3" stroke="#000000" points="4433.5451,-122 4318.4549,-122 4318.4549,-86 4433.5451,-86 4433.5451,-122"/>
<text text-anchor="middle" x="4376" y="-99.8" font-family="Times,serif" font-size="14.00" fill="#000000">HomeComponent</text>
</g>
<!-- HomeComponent&#45;&gt;TrackForceModule -->
<g id="edge3" class="edge">
<title>HomeComponent&#45;&gt;TrackForceModule</title>
<path fill="none" stroke="#000000" d="M4376,-122.0109C4376,-144.4852 4376,-180 4376,-180 4376,-180 2514.1572,-180 2514.1572,-180"/>
<polygon fill="#000000" stroke="#000000" points="2514.1572,-176.5001 2504.1572,-180 2514.1572,-183.5001 2514.1572,-176.5001"/>
</g>
<!-- AssociateListComponent -->
<g id="node4" class="node">
<title>AssociateListComponent</title>
<polygon fill="#ffffb3" stroke="#000000" points="4299.5323,-122 4142.4677,-122 4142.4677,-86 4299.5323,-86 4299.5323,-122"/>
<text text-anchor="middle" x="4221" y="-99.8" font-family="Times,serif" font-size="14.00" fill="#000000">AssociateListComponent</text>
</g>
<!-- AssociateListComponent&#45;&gt;TrackForceModule -->
<g id="edge4" class="edge">
<title>AssociateListComponent&#45;&gt;TrackForceModule</title>
<path fill="none" stroke="#000000" d="M4221,-122.2921C4221,-144.2057 4221,-178 4221,-178 4221,-178 2514.2724,-178 2514.2724,-178"/>
<polygon fill="#000000" stroke="#000000" points="2514.2725,-174.5001 2504.2724,-178 2514.2724,-181.5001 2514.2725,-174.5001"/>
</g>
<!-- AssociateSearchByTextFilter -->
<g id="node5" class="node">
<title>AssociateSearchByTextFilter</title>
<polygon fill="#ffffb3" stroke="#000000" points="4124.3319,-122 3943.6681,-122 3943.6681,-86 4124.3319,-86 4124.3319,-122"/>
<text text-anchor="middle" x="4034" y="-99.8" font-family="Times,serif" font-size="14.00" fill="#000000">AssociateSearchByTextFilter</text>
</g>
<!-- AssociateSearchByTextFilter&#45;&gt;TrackForceModule -->
<g id="edge5" class="edge">
<title>AssociateSearchByTextFilter&#45;&gt;TrackForceModule</title>
<path fill="none" stroke="#000000" d="M4034,-122.2843C4034,-143.3211 4034,-175 4034,-175 4034,-175 2514.4083,-175 2514.4083,-175"/>
<polygon fill="#000000" stroke="#000000" points="2514.4083,-171.5001 2504.4083,-175 2514.4083,-178.5001 2514.4083,-171.5001"/>
</g>
<!-- BatchListComponent -->
<g id="node6" class="node">
<title>BatchListComponent</title>
<polygon fill="#ffffb3" stroke="#000000" points="3925.7674,-122 3790.2326,-122 3790.2326,-86 3925.7674,-86 3925.7674,-122"/>
<text text-anchor="middle" x="3858" y="-99.8" font-family="Times,serif" font-size="14.00" fill="#000000">BatchListComponent</text>
</g>
<!-- BatchListComponent&#45;&gt;TrackForceModule -->
<g id="edge6" class="edge">
<title>BatchListComponent&#45;&gt;TrackForceModule</title>
<path fill="none" stroke="#000000" d="M3858,-122.1289C3858,-142.5724 3858,-173 3858,-173 3858,-173 2514.2118,-173 2514.2118,-173"/>
<polygon fill="#000000" stroke="#000000" points="2514.2118,-169.5001 2504.2118,-173 2514.2117,-176.5001 2514.2118,-169.5001"/>
</g>
<!-- ClientMappedComponent -->
<g id="node7" class="node">
<title>ClientMappedComponent</title>
<polygon fill="#ffffb3" stroke="#000000" points="3771.9298,-122 3610.0702,-122 3610.0702,-86 3771.9298,-86 3771.9298,-122"/>
<text text-anchor="middle" x="3691" y="-99.8" font-family="Times,serif" font-size="14.00" fill="#000000">ClientMappedComponent</text>
</g>
<!-- ClientMappedComponent&#45;&gt;TrackForceModule -->
<g id="edge7" class="edge">
<title>ClientMappedComponent&#45;&gt;TrackForceModule</title>
<path fill="none" stroke="#000000" d="M3691,-122.308C3691,-142.1455 3691,-171 3691,-171 3691,-171 2514.3654,-171 2514.3654,-171"/>
<polygon fill="#000000" stroke="#000000" points="2514.3655,-167.5001 2504.3654,-171 2514.3654,-174.5001 2514.3655,-167.5001"/>
</g>
<!-- FormComponent -->
<g id="node8" class="node">
<title>FormComponent</title>
<polygon fill="#ffffb3" stroke="#000000" points="3591.6667,-122 3480.3333,-122 3480.3333,-86 3591.6667,-86 3591.6667,-122"/>
<text text-anchor="middle" x="3536" y="-99.8" font-family="Times,serif" font-size="14.00" fill="#000000">FormComponent</text>
</g>
<!-- FormComponent&#45;&gt;TrackForceModule -->
<g id="edge8" class="edge">
<title>FormComponent&#45;&gt;TrackForceModule</title>
<path fill="none" stroke="#000000" d="M3536,-122.1686C3536,-141.0898 3536,-168 3536,-168 3536,-168 2514.3496,-168 2514.3496,-168"/>
<polygon fill="#000000" stroke="#000000" points="2514.3496,-164.5001 2504.3496,-168 2514.3495,-171.5001 2514.3496,-164.5001"/>
</g>
<!-- ClientListComponent -->
<g id="node9" class="node">
<title>ClientListComponent</title>
<polygon fill="#ffffb3" stroke="#000000" points="3461.8342,-122 3324.1658,-122 3324.1658,-86 3461.8342,-86 3461.8342,-122"/>
<text text-anchor="middle" x="3393" y="-99.8" font-family="Times,serif" font-size="14.00" fill="#000000">ClientListComponent</text>
</g>
<!-- ClientListComponent&#45;&gt;TrackForceModule -->
<g id="edge9" class="edge">
<title>ClientListComponent&#45;&gt;TrackForceModule</title>
<path fill="none" stroke="#000000" d="M3393,-122.2667C3393,-140.5552 3393,-166 3393,-166 3393,-166 2514.3978,-166 2514.3978,-166"/>
<polygon fill="#000000" stroke="#000000" points="2514.3978,-162.5001 2504.3978,-166 2514.3977,-169.5001 2514.3978,-162.5001"/>
</g>
<!-- LoginComponent -->
<g id="node10" class="node">
<title>LoginComponent</title>
<polygon fill="#ffffb3" stroke="#000000" points="3306.2758,-122 3191.7242,-122 3191.7242,-86 3306.2758,-86 3306.2758,-122"/>
<text text-anchor="middle" x="3249" y="-99.8" font-family="Times,serif" font-size="14.00" fill="#000000">LoginComponent</text>
</g>
<!-- LoginComponent&#45;&gt;TrackForceModule -->
<g id="edge10" class="edge">
<title>LoginComponent&#45;&gt;TrackForceModule</title>
<path fill="none" stroke="#000000" d="M3249,-122.0225C3249,-139.3734 3249,-163 3249,-163 3249,-163 2514.3178,-163 2514.3178,-163"/>
<polygon fill="#000000" stroke="#000000" points="2514.3178,-159.5001 2504.3178,-163 2514.3178,-166.5001 2514.3178,-159.5001"/>
</g>
<!-- CreateUserComponent -->
<g id="node11" class="node">
<title>CreateUserComponent</title>
<polygon fill="#ffffb3" stroke="#000000" points="3173.2907,-122 3028.7093,-122 3028.7093,-86 3173.2907,-86 3173.2907,-122"/>
<text text-anchor="middle" x="3101" y="-99.8" font-family="Times,serif" font-size="14.00" fill="#000000">CreateUserComponent</text>
</g>
<!-- CreateUserComponent&#45;&gt;TrackForceModule -->
<g id="edge11" class="edge">
<title>CreateUserComponent&#45;&gt;TrackForceModule</title>
<path fill="none" stroke="#000000" d="M3101,-122.0352C3101,-138.7344 3101,-161 3101,-161 3101,-161 2514.2939,-161 2514.2939,-161"/>
<polygon fill="#000000" stroke="#000000" points="2514.2939,-157.5001 2504.2939,-161 2514.2939,-164.5001 2514.2939,-157.5001"/>
</g>
<!-- SearchFilterPipe -->
<g id="node12" class="node">
<title>SearchFilterPipe</title>
<polygon fill="#ffffb3" stroke="#000000" points="3010.8048,-122 2901.1952,-122 2901.1952,-86 3010.8048,-86 3010.8048,-122"/>
<text text-anchor="middle" x="2956" y="-99.8" font-family="Times,serif" font-size="14.00" fill="#000000">SearchFilterPipe</text>
</g>
<!-- SearchFilterPipe&#45;&gt;TrackForceModule -->
<g id="edge12" class="edge">
<title>SearchFilterPipe&#45;&gt;TrackForceModule</title>
<path fill="none" stroke="#000000" d="M2956,-122.0091C2956,-138.0494 2956,-159 2956,-159 2956,-159 2514.2563,-159 2514.2563,-159"/>
<polygon fill="#000000" stroke="#000000" points="2514.2563,-155.5001 2504.2563,-159 2514.2563,-162.5001 2514.2563,-155.5001"/>
</g>
<!-- BatchDetailsComponent -->
<g id="node13" class="node">
<title>BatchDetailsComponent</title>
<polygon fill="#ffffb3" stroke="#000000" points="2883.6414,-122 2730.3586,-122 2730.3586,-86 2883.6414,-86 2883.6414,-122"/>
<text text-anchor="middle" x="2807" y="-99.8" font-family="Times,serif" font-size="14.00" fill="#000000">BatchDetailsComponent</text>
</g>
<!-- BatchDetailsComponent&#45;&gt;TrackForceModule -->
<g id="edge13" class="edge">
<title>BatchDetailsComponent&#45;&gt;TrackForceModule</title>
<path fill="none" stroke="#000000" d="M2807,-122.1871C2807,-137.1824 2807,-156 2807,-156 2807,-156 2514.331,-156 2514.331,-156"/>
<polygon fill="#000000" stroke="#000000" points="2514.331,-152.5001 2504.331,-156 2514.331,-159.5001 2514.331,-152.5001"/>
</g>
<!-- RootComponent -->
<g id="node14" class="node">
<title>RootComponent</title>
<polygon fill="#ffffb3" stroke="#000000" points="2712.0605,-122 2603.9395,-122 2603.9395,-86 2712.0605,-86 2712.0605,-122"/>
<text text-anchor="middle" x="2658" y="-99.8" font-family="Times,serif" font-size="14.00" fill="#000000">RootComponent</text>
</g>
<!-- RootComponent&#45;&gt;TrackForceModule -->
<g id="edge14" class="edge">
<title>RootComponent&#45;&gt;TrackForceModule</title>
<path fill="none" stroke="#000000" d="M2658,-122.0511C2658,-136.373 2658,-154 2658,-154 2658,-154 2514.1864,-154 2514.1864,-154"/>
<polygon fill="#000000" stroke="#000000" points="2514.1864,-150.5001 2504.1864,-154 2514.1863,-157.5001 2514.1864,-150.5001"/>
</g>
<!-- SkillsetComponent -->
<g id="node15" class="node">
<title>SkillsetComponent</title>
<polygon fill="#ffffb3" stroke="#000000" points="2585.8371,-122 2462.1629,-122 2462.1629,-86 2585.8371,-86 2585.8371,-122"/>
<text text-anchor="middle" x="2524" y="-99.8" font-family="Times,serif" font-size="14.00" fill="#000000">SkillsetComponent</text>
</g>
<!-- SkillsetComponent&#45;&gt;TrackForceModule -->
<g id="edge15" class="edge">
<title>SkillsetComponent&#45;&gt;TrackForceModule</title>
<path fill="none" stroke="#000000" d="M2483.182,-122.1061C2483.182,-122.1061 2483.182,-140.991 2483.182,-140.991"/>
<polygon fill="#000000" stroke="#000000" points="2479.6821,-140.9909 2483.182,-150.991 2486.6821,-140.991 2479.6821,-140.9909"/>
</g>
<!-- AssociateViewComponent -->
<g id="node16" class="node">
<title>AssociateViewComponent</title>
<polygon fill="#ffffb3" stroke="#000000" points="2444.0716,-122 2277.9284,-122 2277.9284,-86 2444.0716,-86 2444.0716,-122"/>
<text text-anchor="middle" x="2361" y="-99.8" font-family="Times,serif" font-size="14.00" fill="#000000">AssociateViewComponent</text>
</g>
<!-- AssociateViewComponent&#45;&gt;TrackForceModule -->
<g id="edge16" class="edge">
<title>AssociateViewComponent&#45;&gt;TrackForceModule</title>
<path fill="none" stroke="#000000" d="M2412.0018,-122.1061C2412.0018,-122.1061 2412.0018,-140.991 2412.0018,-140.991"/>
<polygon fill="#000000" stroke="#000000" points="2408.5018,-140.9909 2412.0018,-150.991 2415.5018,-140.991 2408.5018,-140.9909"/>
</g>
<!-- RouterLinkStubDirective -->
<g id="node17" class="node">
<title>RouterLinkStubDirective</title>
<polygon fill="#ffffb3" stroke="#000000" points="2260.3019,-122 2101.6981,-122 2101.6981,-86 2260.3019,-86 2260.3019,-122"/>
<text text-anchor="middle" x="2181" y="-99.8" font-family="Times,serif" font-size="14.00" fill="#000000">RouterLinkStubDirective</text>
</g>
<!-- RouterLinkStubDirective&#45;&gt;TrackForceModule -->
<g id="edge17" class="edge">
<title>RouterLinkStubDirective&#45;&gt;TrackForceModule</title>
<path fill="none" stroke="#000000" d="M2181,-122.0511C2181,-136.373 2181,-154 2181,-154 2181,-154 2369.8156,-154 2369.8156,-154"/>
<polygon fill="#000000" stroke="#000000" points="2369.8156,-157.5001 2379.8156,-154 2369.8156,-150.5001 2369.8156,-157.5001"/>
</g>
<!-- RouterOutletStubComponent -->
<g id="node18" class="node">
<title>RouterOutletStubComponent</title>
<polygon fill="#ffffb3" stroke="#000000" points="2084.101,-122 1903.899,-122 1903.899,-86 2084.101,-86 2084.101,-122"/>
<text text-anchor="middle" x="1994" y="-99.8" font-family="Times,serif" font-size="14.00" fill="#000000">RouterOutletStubComponent</text>
</g>
<!-- RouterOutletStubComponent&#45;&gt;TrackForceModule -->
<g id="edge18" class="edge">
<title>RouterOutletStubComponent&#45;&gt;TrackForceModule</title>
<path fill="none" stroke="#000000" d="M1994,-122.1871C1994,-137.1824 1994,-156 1994,-156 1994,-156 2369.7075,-156 2369.7075,-156"/>
<polygon fill="#000000" stroke="#000000" points="2369.7076,-159.5001 2379.7075,-156 2369.7075,-152.5001 2369.7076,-159.5001"/>
</g>
<!-- FooterComponent -->
<g id="node19" class="node">
<title>FooterComponent</title>
<polygon fill="#ffffb3" stroke="#000000" points="1885.8809,-122 1768.1191,-122 1768.1191,-86 1885.8809,-86 1885.8809,-122"/>
<text text-anchor="middle" x="1827" y="-99.8" font-family="Times,serif" font-size="14.00" fill="#000000">FooterComponent</text>
</g>
<!-- FooterComponent&#45;&gt;TrackForceModule -->
<g id="edge19" class="edge">
<title>FooterComponent&#45;&gt;TrackForceModule</title>
<path fill="none" stroke="#000000" d="M1827,-122.0091C1827,-138.0494 1827,-159 1827,-159 1827,-159 2369.9311,-159 2369.9311,-159"/>
<polygon fill="#000000" stroke="#000000" points="2369.9312,-162.5001 2379.9311,-159 2369.9311,-155.5001 2369.9312,-162.5001"/>
</g>
<!-- TrackForceComponent  -->
<g id="node21" class="node">
<title>TrackForceComponent </title>
<polygon fill="#80b1d3" stroke="#000000" points="2516.8476,-252 2367.1524,-252 2367.1524,-216 2516.8476,-216 2516.8476,-252"/>
<text text-anchor="middle" x="2442" y="-229.8" font-family="Times,serif" font-size="14.00" fill="#000000">TrackForceComponent </text>
</g>
<!-- TrackForceModule&#45;&gt;TrackForceComponent  -->
<g id="edge20" class="edge">
<title>TrackForceModule&#45;&gt;TrackForceComponent </title>
<path fill="none" stroke="#000000" stroke-dasharray="1,5" d="M2442,-187.1061C2442,-187.1061 2442,-205.991 2442,-205.991"/>
<polygon fill="#000000" stroke="#000000" points="2438.5001,-205.9909 2442,-215.991 2445.5001,-205.991 2438.5001,-205.9909"/>
</g>
<!-- AssociateService -->
<g id="node22" class="node">
<title>AssociateService</title>
<ellipse fill="#fdb462" stroke="#000000" cx="1666" cy="-104" rx="77.5607" ry="18"/>
<text text-anchor="middle" x="1666" y="-99.8" font-family="Times,serif" font-size="14.00" fill="#000000">AssociateService</text>
</g>
<!-- AssociateService&#45;&gt;TrackForceModule -->
<g id="edge21" class="edge">
<title>AssociateService&#45;&gt;TrackForceModule</title>
<path fill="none" stroke="#000000" d="M1666,-122.0352C1666,-138.7344 1666,-161 1666,-161 1666,-161 2369.8084,-161 2369.8084,-161"/>
<polygon fill="#000000" stroke="#000000" points="2369.8085,-164.5001 2379.8084,-161 2369.8084,-157.5001 2369.8085,-164.5001"/>
</g>
<!-- ClientListService -->
<g id="node23" class="node">
<title>ClientListService</title>
<ellipse fill="#fdb462" stroke="#000000" cx="1492" cy="-104" rx="78.7415" ry="18"/>
<text text-anchor="middle" x="1492" y="-99.8" font-family="Times,serif" font-size="14.00" fill="#000000">ClientListService</text>
</g>
<!-- ClientListService&#45;&gt;TrackForceModule -->
<g id="edge22" class="edge">
<title>ClientListService&#45;&gt;TrackForceModule</title>
<path fill="none" stroke="#000000" d="M1492,-122.0225C1492,-139.3734 1492,-163 1492,-163 1492,-163 2369.6678,-163 2369.6678,-163"/>
<polygon fill="#000000" stroke="#000000" points="2369.6679,-166.5001 2379.6678,-163 2369.6678,-159.5001 2369.6679,-166.5001"/>
</g>
<!-- ClientMappedService -->
<g id="node24" class="node">
<title>ClientMappedService</title>
<ellipse fill="#fdb462" stroke="#000000" cx="1300" cy="-104" rx="95.483" ry="18"/>
<text text-anchor="middle" x="1300" y="-99.8" font-family="Times,serif" font-size="14.00" fill="#000000">ClientMappedService</text>
</g>
<!-- ClientMappedService&#45;&gt;TrackForceModule -->
<g id="edge23" class="edge">
<title>ClientMappedService&#45;&gt;TrackForceModule</title>
<path fill="none" stroke="#000000" d="M1300,-122.2667C1300,-140.5552 1300,-166 1300,-166 1300,-166 2369.7901,-166 2369.7901,-166"/>
<polygon fill="#000000" stroke="#000000" points="2369.7902,-169.5001 2379.7901,-166 2369.7901,-162.5001 2369.7902,-169.5001"/>
</g>
<!-- AuthenticationService -->
<g id="node25" class="node">
<title>AuthenticationService</title>
<ellipse fill="#fdb462" stroke="#000000" cx="1089" cy="-104" rx="97.2683" ry="18"/>
<text text-anchor="middle" x="1089" y="-99.8" font-family="Times,serif" font-size="14.00" fill="#000000">AuthenticationService</text>
</g>
<!-- AuthenticationService&#45;&gt;TrackForceModule -->
<g id="edge24" class="edge">
<title>AuthenticationService&#45;&gt;TrackForceModule</title>
<path fill="none" stroke="#000000" d="M1089,-122.1686C1089,-141.0898 1089,-168 1089,-168 1089,-168 2369.9028,-168 2369.9028,-168"/>
<polygon fill="#000000" stroke="#000000" points="2369.9028,-171.5001 2379.9028,-168 2369.9028,-164.5001 2369.9028,-171.5001"/>
</g>
<!-- RequestService -->
<g id="node26" class="node">
<title>RequestService</title>
<ellipse fill="#fdb462" stroke="#000000" cx="903" cy="-104" rx="71.2036" ry="18"/>
<text text-anchor="middle" x="903" y="-99.8" font-family="Times,serif" font-size="14.00" fill="#000000">RequestService</text>
</g>
<!-- RequestService&#45;&gt;TrackForceModule -->
<g id="edge25" class="edge">
<title>RequestService&#45;&gt;TrackForceModule</title>
<path fill="none" stroke="#000000" d="M903,-122.308C903,-142.1455 903,-171 903,-171 903,-171 2369.7633,-171 2369.7633,-171"/>
<polygon fill="#000000" stroke="#000000" points="2369.7633,-174.5001 2379.7633,-171 2369.7632,-167.5001 2369.7633,-174.5001"/>
</g>
<!-- SkillsetService -->
<g id="node27" class="node">
<title>SkillsetService</title>
<ellipse fill="#fdb462" stroke="#000000" cx="745" cy="-104" rx="68.9313" ry="18"/>
<text text-anchor="middle" x="745" y="-99.8" font-family="Times,serif" font-size="14.00" fill="#000000">SkillsetService</text>
</g>
<!-- SkillsetService&#45;&gt;TrackForceModule -->
<g id="edge26" class="edge">
<title>SkillsetService&#45;&gt;TrackForceModule</title>
<path fill="none" stroke="#000000" d="M767.9885,-121.0562C767.9885,-141.4891 767.9885,-173 767.9885,-173 767.9885,-173 2369.9348,-173 2369.9348,-173"/>
<polygon fill="#000000" stroke="#000000" points="2369.9348,-176.5001 2379.9348,-173 2369.9347,-169.5001 2369.9348,-176.5001"/>
</g>
<!-- SkillsetService&#45;&gt;TrackForceModule -->
<g id="edge29" class="edge">
<title>SkillsetService&#45;&gt;TrackForceModule</title>
<path fill="none" stroke="#000000" d="M722.0115,-121.1871C722.0115,-142.1998 722.0115,-175 722.0115,-175 722.0115,-175 2369.7686,-175 2369.7686,-175"/>
<polygon fill="#000000" stroke="#000000" points="2369.7686,-178.5001 2379.7686,-175 2369.7685,-171.5001 2369.7686,-178.5001"/>
</g>
<!-- BatchService -->
<g id="node28" class="node">
<title>BatchService</title>
<ellipse fill="#fdb462" stroke="#000000" cx="596" cy="-104" rx="62.5354" ry="18"/>
<text text-anchor="middle" x="596" y="-99.8" font-family="Times,serif" font-size="14.00" fill="#000000">BatchService</text>
</g>
<!-- BatchService&#45;&gt;TrackForceModule -->
<g id="edge27" class="edge">
<title>BatchService&#45;&gt;TrackForceModule</title>
<path fill="none" stroke="#000000" d="M596,-122.2921C596,-144.2057 596,-178 596,-178 596,-178 2369.7877,-178 2369.7877,-178"/>
<polygon fill="#000000" stroke="#000000" points="2369.7878,-181.5001 2379.7877,-178 2369.7877,-174.5001 2369.7878,-181.5001"/>
</g>
<!-- CreateUserService -->
<g id="node29" class="node">
<title>CreateUserService</title>
<ellipse fill="#fdb462" stroke="#000000" cx="432" cy="-104" rx="83.3384" ry="18"/>
<text text-anchor="middle" x="432" y="-99.8" font-family="Times,serif" font-size="14.00" fill="#000000">CreateUserService</text>
</g>
<!-- CreateUserService&#45;&gt;TrackForceModule -->
<g id="edge28" class="edge">
<title>CreateUserService&#45;&gt;TrackForceModule</title>
<path fill="none" stroke="#000000" d="M432,-122.0109C432,-144.4852 432,-180 432,-180 432,-180 2369.9181,-180 2369.9181,-180"/>
<polygon fill="#000000" stroke="#000000" points="2369.9181,-183.5001 2379.9181,-180 2369.9181,-176.5001 2369.9181,-183.5001"/>
</g>
<!-- DataSyncService -->
<g id="node30" class="node">
<title>DataSyncService</title>
<ellipse fill="#fdb462" stroke="#000000" cx="253" cy="-104" rx="77.5646" ry="18"/>
<text text-anchor="middle" x="253" y="-99.8" font-family="Times,serif" font-size="14.00" fill="#000000">DataSyncService</text>
</g>
<!-- DataSyncService&#45;&gt;TrackForceModule -->
<g id="edge30" class="edge">
<title>DataSyncService&#45;&gt;TrackForceModule</title>
<path fill="none" stroke="#000000" d="M253,-122.3228C253,-145.6602 253,-183 253,-183 253,-183 2369.7232,-183 2369.7232,-183"/>
<polygon fill="#000000" stroke="#000000" points="2369.7232,-186.5001 2379.7232,-183 2369.7231,-179.5001 2369.7232,-186.5001"/>
</g>
<!-- JwtInterceptor -->
<g id="node31" class="node">
<title>JwtInterceptor</title>
<ellipse fill="#fdb462" stroke="#000000" cx="91" cy="-104" rx="66.6094" ry="18"/>
<text text-anchor="middle" x="91" y="-99.8" font-family="Times,serif" font-size="14.00" fill="#000000">JwtInterceptor</text>
</g>
<!-- JwtInterceptor&#45;&gt;TrackForceModule -->
<g id="edge31" class="edge">
<title>JwtInterceptor&#45;&gt;TrackForceModule</title>
<path fill="none" stroke="#000000" d="M91,-122.3802C91,-146.2785 91,-185 91,-185 91,-185 2369.722,-185 2369.722,-185"/>
<polygon fill="#000000" stroke="#000000" points="2369.7221,-188.5001 2379.722,-185 2369.722,-181.5001 2369.7221,-188.5001"/>
</g>
</g>
</svg>
