<?xml version="1.0" encoding="UTF-8" standalone="no"?>
<!DOCTYPE svg PUBLIC "-//W3C//DTD SVG 1.1//EN"
 "http://www.w3.org/Graphics/SVG/1.1/DTD/svg11.dtd">
<!-- Generated by graphviz version 2.40.1 (20161225.0304)
 -->
<!-- Title: dependencies Pages: 1 -->
<svg width="504pt" height="211pt"
 viewBox="0.00 0.00 504.00 211.00" xmlns="http://www.w3.org/2000/svg" xmlns:xlink="http://www.w3.org/1999/xlink">
<g id="graph0" class="graph" transform="scale(1 1) rotate(0) translate(4 207)">
<title>dependencies</title>
<polygon fill="#ffffff" stroke="transparent" points="-4,4 -4,-207 500,-207 500,4 -4,4"/>
<text text-anchor="start" x="227.0091" y="-42.4" font-family="sans-serif" font-weight="bold" font-size="14.00" fill="#000000">Legend</text>
<polygon fill="#ffffb3" stroke="transparent" points="14,-10 14,-30 34,-30 34,-10 14,-10"/>
<text text-anchor="start" x="37.629" y="-15.4" font-family="sans-serif" font-size="14.00" fill="#000000"> &#160;Declarations</text>
<polygon fill="#8dd3c7" stroke="transparent" points="127,-10 127,-30 147,-30 147,-10 127,-10"/>
<text text-anchor="start" x="150.7251" y="-15.4" font-family="sans-serif" font-size="14.00" fill="#000000"> &#160;Module</text>
<polygon fill="#80b1d3" stroke="transparent" points="213,-10 213,-30 233,-30 233,-10 213,-10"/>
<text text-anchor="start" x="236.7812" y="-15.4" font-family="sans-serif" font-size="14.00" fill="#000000"> &#160;Bootstrap</text>
<polygon fill="#fdb462" stroke="transparent" points="310,-10 310,-30 330,-30 330,-10 310,-10"/>
<text text-anchor="start" x="333.6732" y="-15.4" font-family="sans-serif" font-size="14.00" fill="#000000"> &#160;Providers</text>
<polygon fill="#fb8072" stroke="transparent" points="406,-10 406,-30 426,-30 426,-10 406,-10"/>
<text text-anchor="start" x="429.7258" y="-15.4" font-family="sans-serif" font-size="14.00" fill="#000000"> &#160;Exports</text>
<g id="clust1" class="cluster">
<title>cluster_AssignForceModule</title>
<polygon fill="none" stroke="#000000" stroke-dasharray="1,5" points="14,-70 14,-195 482,-195 482,-70 14,-70"/>
</g>
<g id="clust2" class="cluster">
<title>cluster_AssignForceModule_declarations</title>
<polygon fill="none" stroke="#000000" points="22,-78 22,-130 474,-130 474,-78 22,-78"/>
</g>
<!-- AssignForceComponent -->
<g id="node1" class="node">
<title>AssignForceComponent</title>
<polygon fill="#ffffb3" stroke="#000000" points="466.0912,-122 313.9088,-122 313.9088,-86 466.0912,-86 466.0912,-122"/>
<text text-anchor="middle" x="390" y="-99.8" font-family="Times,serif" font-size="14.00" fill="#000000">AssignForceComponent</text>
</g>
<!-- AssignForceModule -->
<g id="node4" class="node">
<title>AssignForceModule</title>
<polygon fill="#8dd3c7" stroke="#000000" points="303.309,-187 300.309,-191 279.309,-191 276.309,-187 172.691,-187 172.691,-151 303.309,-151 303.309,-187"/>
<text text-anchor="middle" x="238" y="-164.8" font-family="Times,serif" font-size="14.00" fill="#000000">AssignForceModule</text>
</g>
<!-- AssignForceComponent&#45;&gt;AssignForceModule -->
<g id="edge1" class="edge">
<title>AssignForceComponent&#45;&gt;AssignForceModule</title>
<path fill="none" stroke="#000000" d="M313.6096,-104C305.1217,-104 299.4632,-104 299.4632,-104 299.4632,-104 299.4632,-140.8939 299.4632,-140.8939"/>
<polygon fill="#000000" stroke="#000000" points="295.9633,-140.8938 299.4632,-150.8939 302.9633,-140.8939 295.9633,-140.8938"/>
</g>
<!-- HomeComponent -->
<g id="node2" class="node">
<title>HomeComponent</title>
<polygon fill="#ffffb3" stroke="#000000" points="295.5451,-122 180.4549,-122 180.4549,-86 295.5451,-86 295.5451,-122"/>
<text text-anchor="middle" x="238" y="-99.8" font-family="Times,serif" font-size="14.00" fill="#000000">HomeComponent</text>
</g>
<!-- HomeComponent&#45;&gt;AssignForceModule -->
<g id="edge2" class="edge">
<title>HomeComponent&#45;&gt;AssignForceModule</title>
<path fill="none" stroke="#000000" d="M238,-122.1061C238,-122.1061 238,-140.991 238,-140.991"/>
<polygon fill="#000000" stroke="#000000" points="234.5001,-140.9909 238,-150.991 241.5001,-140.991 234.5001,-140.9909"/>
</g>
<!-- CalendarComponent -->
<g id="node3" class="node">
<title>CalendarComponent</title>
<polygon fill="#ffffb3" stroke="#000000" points="161.8641,-122 30.1359,-122 30.1359,-86 161.8641,-86 161.8641,-122"/>
<text text-anchor="middle" x="96" y="-99.8" font-family="Times,serif" font-size="14.00" fill="#000000">CalendarComponent</text>
</g>
<!-- CalendarComponent&#45;&gt;AssignForceModule -->
<g id="edge3" class="edge">
<title>CalendarComponent&#45;&gt;AssignForceModule</title>
<path fill="none" stroke="#000000" d="M162.1384,-104C170.686,-104 176.5368,-104 176.5368,-104 176.5368,-104 176.5368,-140.8939 176.5368,-140.8939"/>
<polygon fill="#000000" stroke="#000000" points="173.0369,-140.8938 176.5368,-150.8939 180.0369,-140.8939 173.0369,-140.8938"/>
</g>
</g>
</svg>
